<?xml version="1.0" encoding="utf-8" standalone="no"?>
<!DOCTYPE svg PUBLIC "-//W3C//DTD SVG 1.1//EN"
  "http://www.w3.org/Graphics/SVG/1.1/DTD/svg11.dtd">
<svg height="360pt" version="1.1" viewBox="0 0 504 360" width="504pt" xmlns="http://www.w3.org/2000/svg" xmlns:xlink="http://www.w3.org/1999/xlink">
 <metadata>
  <rdf:RDF xmlns:cc="http://creativecommons.org/ns#" xmlns:dc="http://purl.org/dc/elements/1.1/" xmlns:rdf="http://www.w3.org/1999/02/22-rdf-syntax-ns#">
   <cc:Work>
    <dc:type rdf:resource="http://purl.org/dc/dcmitype/StillImage"/>
    <dc:date>2022-10-11T15:32:26.141314</dc:date>
    <dc:format>image/svg+xml</dc:format>
    <dc:creator>
     <cc:Agent>
      <dc:title>Matplotlib v3.4.3, https://matplotlib.org/</dc:title>
     </cc:Agent>
    </dc:creator>
   </cc:Work>
  </rdf:RDF>
 </metadata>
 <defs>
  <style type="text/css">*{stroke-linecap:butt;stroke-linejoin:round;}</style>
 </defs>
 <g id="figure_1">
  <g id="patch_1">
   <path d="M 0 360 
L 504 360 
L 504 0 
L 0 0 
z
" style="fill:none;"/>
  </g>
  <g id="axes_1">
   <g id="patch_2">
    <path d="M 54.050023 319.95856 
L 500.99976 319.95856 
L 500.99976 34.811085 
L 54.050023 34.811085 
z
" style="fill:#ffffff;"/>
   </g>
   <g id="line2d_1">
    <path clip-path="url(#pe33ff59f5e)" d="M 74.36592 247.684264 
L 94.681817 231.312467 
L 114.997714 219.129007 
L 135.313611 255.231628 
L 155.629509 239.602656 
L 175.945406 220.379885 
L 196.261303 236.005468 
L 216.5772 245.919224 
L 236.893097 250.470222 
L 257.208994 240.814777 
L 277.524891 247.227437 
L 297.840789 265.729615 
L 318.156686 265.121876 
L 338.472583 255.238553 
L 358.78848 252.013342 
L 379.104377 276.154718 
L 399.420274 268.547695 
L 419.736171 286.050339 
L 440.052069 283.234359 
L 460.367966 279.858579 
L 480.683863 306.997311 
" style="fill:none;stroke:#87ceeb;stroke-dasharray:2.775,1.2;stroke-dashoffset:0;stroke-width:0.75;"/>
    <defs>
     <path d="M 0 3 
C 0.795609 3 1.55874 2.683901 2.12132 2.12132 
C 2.683901 1.55874 3 0.795609 3 0 
C 3 -0.795609 2.683901 -1.55874 2.12132 -2.12132 
C 1.55874 -2.683901 0.795609 -3 0 -3 
C -0.795609 -3 -1.55874 -2.683901 -2.12132 -2.12132 
C -2.683901 -1.55874 -3 -0.795609 -3 0 
C -3 0.795609 -2.683901 1.55874 -2.12132 2.12132 
C -1.55874 2.683901 -0.795609 3 0 3 
z
" id="mea7c2fcdf1" style="stroke:#87ceeb;"/>
    </defs>
    <g clip-path="url(#pe33ff59f5e)">
     <use style="fill:#87ceeb;stroke:#87ceeb;" x="74.36592" xlink:href="#mea7c2fcdf1" y="247.684264"/>
     <use style="fill:#87ceeb;stroke:#87ceeb;" x="94.681817" xlink:href="#mea7c2fcdf1" y="231.312467"/>
     <use style="fill:#87ceeb;stroke:#87ceeb;" x="114.997714" xlink:href="#mea7c2fcdf1" y="219.129007"/>
     <use style="fill:#87ceeb;stroke:#87ceeb;" x="135.313611" xlink:href="#mea7c2fcdf1" y="255.231628"/>
     <use style="fill:#87ceeb;stroke:#87ceeb;" x="155.629509" xlink:href="#mea7c2fcdf1" y="239.602656"/>
     <use style="fill:#87ceeb;stroke:#87ceeb;" x="175.945406" xlink:href="#mea7c2fcdf1" y="220.379885"/>
     <use style="fill:#87ceeb;stroke:#87ceeb;" x="196.261303" xlink:href="#mea7c2fcdf1" y="236.005468"/>
     <use style="fill:#87ceeb;stroke:#87ceeb;" x="216.5772" xlink:href="#mea7c2fcdf1" y="245.919224"/>
     <use style="fill:#87ceeb;stroke:#87ceeb;" x="236.893097" xlink:href="#mea7c2fcdf1" y="250.470222"/>
     <use style="fill:#87ceeb;stroke:#87ceeb;" x="257.208994" xlink:href="#mea7c2fcdf1" y="240.814777"/>
     <use style="fill:#87ceeb;stroke:#87ceeb;" x="277.524891" xlink:href="#mea7c2fcdf1" y="247.227437"/>
     <use style="fill:#87ceeb;stroke:#87ceeb;" x="297.840789" xlink:href="#mea7c2fcdf1" y="265.729615"/>
     <use style="fill:#87ceeb;stroke:#87ceeb;" x="318.156686" xlink:href="#mea7c2fcdf1" y="265.121876"/>
     <use style="fill:#87ceeb;stroke:#87ceeb;" x="338.472583" xlink:href="#mea7c2fcdf1" y="255.238553"/>
     <use style="fill:#87ceeb;stroke:#87ceeb;" x="358.78848" xlink:href="#mea7c2fcdf1" y="252.013342"/>
     <use style="fill:#87ceeb;stroke:#87ceeb;" x="379.104377" xlink:href="#mea7c2fcdf1" y="276.154718"/>
     <use style="fill:#87ceeb;stroke:#87ceeb;" x="399.420274" xlink:href="#mea7c2fcdf1" y="268.547695"/>
     <use style="fill:#87ceeb;stroke:#87ceeb;" x="419.736171" xlink:href="#mea7c2fcdf1" y="286.050339"/>
     <use style="fill:#87ceeb;stroke:#87ceeb;" x="440.052069" xlink:href="#mea7c2fcdf1" y="283.234359"/>
     <use style="fill:#87ceeb;stroke:#87ceeb;" x="460.367966" xlink:href="#mea7c2fcdf1" y="279.858579"/>
     <use style="fill:#87ceeb;stroke:#87ceeb;" x="480.683863" xlink:href="#mea7c2fcdf1" y="306.997311"/>
    </g>
   </g>
   <g id="line2d_2">
    <path clip-path="url(#pe33ff59f5e)" d="M 74.36592 240.380249 
L 94.681817 241.787227 
L 114.997714 233.832646 
L 135.313611 255.046029 
L 155.629509 267.08048 
L 175.945406 239.734858 
L 196.261303 248.995533 
L 216.5772 255.160977 
L 236.893097 237.968441 
L 257.208994 240.716936 
L 277.524891 247.394096 
L 297.840789 262.009569 
L 318.156686 259.029236 
L 338.472583 284.888051 
L 358.78848 273.451453 
L 379.104377 284.495743 
L 399.420274 288.250054 
L 419.736171 305.708237 
L 440.052069 298.258609 
L 460.367966 300.856636 
L 480.683863 306.463282 
" style="fill:none;stroke:#1f77b4;stroke-dasharray:2.775,1.2;stroke-dashoffset:0;stroke-width:0.75;"/>
    <defs>
     <path d="M -0 3 
L 3 -3 
L -3 -3 
z
" id="m850419b48f" style="stroke:#1f77b4;stroke-linejoin:miter;"/>
    </defs>
    <g clip-path="url(#pe33ff59f5e)">
     <use style="fill:#1f77b4;stroke:#1f77b4;stroke-linejoin:miter;" x="74.36592" xlink:href="#m850419b48f" y="240.380249"/>
     <use style="fill:#1f77b4;stroke:#1f77b4;stroke-linejoin:miter;" x="94.681817" xlink:href="#m850419b48f" y="241.787227"/>
     <use style="fill:#1f77b4;stroke:#1f77b4;stroke-linejoin:miter;" x="114.997714" xlink:href="#m850419b48f" y="233.832646"/>
     <use style="fill:#1f77b4;stroke:#1f77b4;stroke-linejoin:miter;" x="135.313611" xlink:href="#m850419b48f" y="255.046029"/>
     <use style="fill:#1f77b4;stroke:#1f77b4;stroke-linejoin:miter;" x="155.629509" xlink:href="#m850419b48f" y="267.08048"/>
     <use style="fill:#1f77b4;stroke:#1f77b4;stroke-linejoin:miter;" x="175.945406" xlink:href="#m850419b48f" y="239.734858"/>
     <use style="fill:#1f77b4;stroke:#1f77b4;stroke-linejoin:miter;" x="196.261303" xlink:href="#m850419b48f" y="248.995533"/>
     <use style="fill:#1f77b4;stroke:#1f77b4;stroke-linejoin:miter;" x="216.5772" xlink:href="#m850419b48f" y="255.160977"/>
     <use style="fill:#1f77b4;stroke:#1f77b4;stroke-linejoin:miter;" x="236.893097" xlink:href="#m850419b48f" y="237.968441"/>
     <use style="fill:#1f77b4;stroke:#1f77b4;stroke-linejoin:miter;" x="257.208994" xlink:href="#m850419b48f" y="240.716936"/>
     <use style="fill:#1f77b4;stroke:#1f77b4;stroke-linejoin:miter;" x="277.524891" xlink:href="#m850419b48f" y="247.394096"/>
     <use style="fill:#1f77b4;stroke:#1f77b4;stroke-linejoin:miter;" x="297.840789" xlink:href="#m850419b48f" y="262.009569"/>
     <use style="fill:#1f77b4;stroke:#1f77b4;stroke-linejoin:miter;" x="318.156686" xlink:href="#m850419b48f" y="259.029236"/>
     <use style="fill:#1f77b4;stroke:#1f77b4;stroke-linejoin:miter;" x="338.472583" xlink:href="#m850419b48f" y="284.888051"/>
     <use style="fill:#1f77b4;stroke:#1f77b4;stroke-linejoin:miter;" x="358.78848" xlink:href="#m850419b48f" y="273.451453"/>
     <use style="fill:#1f77b4;stroke:#1f77b4;stroke-linejoin:miter;" x="379.104377" xlink:href="#m850419b48f" y="284.495743"/>
     <use style="fill:#1f77b4;stroke:#1f77b4;stroke-linejoin:miter;" x="399.420274" xlink:href="#m850419b48f" y="288.250054"/>
     <use style="fill:#1f77b4;stroke:#1f77b4;stroke-linejoin:miter;" x="419.736171" xlink:href="#m850419b48f" y="305.708237"/>
     <use style="fill:#1f77b4;stroke:#1f77b4;stroke-linejoin:miter;" x="440.052069" xlink:href="#m850419b48f" y="298.258609"/>
     <use style="fill:#1f77b4;stroke:#1f77b4;stroke-linejoin:miter;" x="460.367966" xlink:href="#m850419b48f" y="300.856636"/>
     <use style="fill:#1f77b4;stroke:#1f77b4;stroke-linejoin:miter;" x="480.683863" xlink:href="#m850419b48f" y="306.463282"/>
    </g>
   </g>
   <g id="line2d_3">
    <path clip-path="url(#pe33ff59f5e)" d="M 74.36592 47.772334 
L 94.681817 141.583663 
L 114.997714 173.283672 
L 135.313611 177.468212 
L 155.629509 191.94463 
L 175.945406 181.124186 
L 196.261303 146.570528 
L 216.5772 211.689181 
L 236.893097 235.262948 
L 257.208994 208.274951 
L 277.524891 191.124064 
L 297.840789 244.81224 
L 318.156686 202.770036 
L 338.472583 225.565654 
L 358.78848 192.055353 
L 379.104377 234.168231 
L 399.420274 160.241802 
L 419.736171 211.507889 
L 440.052069 187.408955 
L 460.367966 162.612244 
L 480.683863 265.087244 
" style="fill:none;stroke:#f08080;stroke-dasharray:2.775,1.2;stroke-dashoffset:0;stroke-width:0.75;"/>
    <defs>
     <path d="M -3 3 
L 3 3 
L 3 -3 
L -3 -3 
z
" id="m4cb50f9a2c" style="stroke:#f08080;stroke-linejoin:miter;"/>
    </defs>
    <g clip-path="url(#pe33ff59f5e)">
     <use style="fill:#f08080;stroke:#f08080;stroke-linejoin:miter;" x="74.36592" xlink:href="#m4cb50f9a2c" y="47.772334"/>
     <use style="fill:#f08080;stroke:#f08080;stroke-linejoin:miter;" x="94.681817" xlink:href="#m4cb50f9a2c" y="141.583663"/>
     <use style="fill:#f08080;stroke:#f08080;stroke-linejoin:miter;" x="114.997714" xlink:href="#m4cb50f9a2c" y="173.283672"/>
     <use style="fill:#f08080;stroke:#f08080;stroke-linejoin:miter;" x="135.313611" xlink:href="#m4cb50f9a2c" y="177.468212"/>
     <use style="fill:#f08080;stroke:#f08080;stroke-linejoin:miter;" x="155.629509" xlink:href="#m4cb50f9a2c" y="191.94463"/>
     <use style="fill:#f08080;stroke:#f08080;stroke-linejoin:miter;" x="175.945406" xlink:href="#m4cb50f9a2c" y="181.124186"/>
     <use style="fill:#f08080;stroke:#f08080;stroke-linejoin:miter;" x="196.261303" xlink:href="#m4cb50f9a2c" y="146.570528"/>
     <use style="fill:#f08080;stroke:#f08080;stroke-linejoin:miter;" x="216.5772" xlink:href="#m4cb50f9a2c" y="211.689181"/>
     <use style="fill:#f08080;stroke:#f08080;stroke-linejoin:miter;" x="236.893097" xlink:href="#m4cb50f9a2c" y="235.262948"/>
     <use style="fill:#f08080;stroke:#f08080;stroke-linejoin:miter;" x="257.208994" xlink:href="#m4cb50f9a2c" y="208.274951"/>
     <use style="fill:#f08080;stroke:#f08080;stroke-linejoin:miter;" x="277.524891" xlink:href="#m4cb50f9a2c" y="191.124064"/>
     <use style="fill:#f08080;stroke:#f08080;stroke-linejoin:miter;" x="297.840789" xlink:href="#m4cb50f9a2c" y="244.81224"/>
     <use style="fill:#f08080;stroke:#f08080;stroke-linejoin:miter;" x="318.156686" xlink:href="#m4cb50f9a2c" y="202.770036"/>
     <use style="fill:#f08080;stroke:#f08080;stroke-linejoin:miter;" x="338.472583" xlink:href="#m4cb50f9a2c" y="225.565654"/>
     <use style="fill:#f08080;stroke:#f08080;stroke-linejoin:miter;" x="358.78848" xlink:href="#m4cb50f9a2c" y="192.055353"/>
     <use style="fill:#f08080;stroke:#f08080;stroke-linejoin:miter;" x="379.104377" xlink:href="#m4cb50f9a2c" y="234.168231"/>
     <use style="fill:#f08080;stroke:#f08080;stroke-linejoin:miter;" x="399.420274" xlink:href="#m4cb50f9a2c" y="160.241802"/>
     <use style="fill:#f08080;stroke:#f08080;stroke-linejoin:miter;" x="419.736171" xlink:href="#m4cb50f9a2c" y="211.507889"/>
     <use style="fill:#f08080;stroke:#f08080;stroke-linejoin:miter;" x="440.052069" xlink:href="#m4cb50f9a2c" y="187.408955"/>
     <use style="fill:#f08080;stroke:#f08080;stroke-linejoin:miter;" x="460.367966" xlink:href="#m4cb50f9a2c" y="162.612244"/>
     <use style="fill:#f08080;stroke:#f08080;stroke-linejoin:miter;" x="480.683863" xlink:href="#m4cb50f9a2c" y="265.087244"/>
    </g>
   </g>
   <g id="line2d_4">
    <path clip-path="url(#pe33ff59f5e)" d="M 74.36592 71.47313 
L 94.681817 121.691573 
L 114.997714 134.027789 
L 135.313611 213.718104 
L 155.629509 171.570478 
L 175.945406 224.958519 
L 196.261303 197.957423 
L 216.5772 205.898799 
L 236.893097 219.089894 
L 257.208994 215.628059 
L 277.524891 235.012155 
L 297.840789 233.605942 
L 318.156686 235.441526 
L 338.472583 215.362241 
L 358.78848 216.278216 
L 379.104377 209.883337 
L 399.420274 187.990786 
L 419.736171 222.80158 
L 440.052069 230.631429 
L 460.367966 222.650323 
L 480.683863 234.550758 
" style="fill:none;stroke:#b22222;stroke-dasharray:2.775,1.2;stroke-dashoffset:0;stroke-width:0.75;"/>
    <defs>
     <path d="M 0 -3 
L -0.673542 -0.927051 
L -2.85317 -0.927051 
L -1.089814 0.354102 
L -1.763356 2.427051 
L -0 1.145898 
L 1.763356 2.427051 
L 1.089814 0.354102 
L 2.85317 -0.927051 
L 0.673542 -0.927051 
z
" id="m4bd586516b" style="stroke:#b22222;stroke-linejoin:bevel;"/>
    </defs>
    <g clip-path="url(#pe33ff59f5e)">
     <use style="fill:#b22222;stroke:#b22222;stroke-linejoin:bevel;" x="74.36592" xlink:href="#m4bd586516b" y="71.47313"/>
     <use style="fill:#b22222;stroke:#b22222;stroke-linejoin:bevel;" x="94.681817" xlink:href="#m4bd586516b" y="121.691573"/>
     <use style="fill:#b22222;stroke:#b22222;stroke-linejoin:bevel;" x="114.997714" xlink:href="#m4bd586516b" y="134.027789"/>
     <use style="fill:#b22222;stroke:#b22222;stroke-linejoin:bevel;" x="135.313611" xlink:href="#m4bd586516b" y="213.718104"/>
     <use style="fill:#b22222;stroke:#b22222;stroke-linejoin:bevel;" x="155.629509" xlink:href="#m4bd586516b" y="171.570478"/>
     <use style="fill:#b22222;stroke:#b22222;stroke-linejoin:bevel;" x="175.945406" xlink:href="#m4bd586516b" y="224.958519"/>
     <use style="fill:#b22222;stroke:#b22222;stroke-linejoin:bevel;" x="196.261303" xlink:href="#m4bd586516b" y="197.957423"/>
     <use style="fill:#b22222;stroke:#b22222;stroke-linejoin:bevel;" x="216.5772" xlink:href="#m4bd586516b" y="205.898799"/>
     <use style="fill:#b22222;stroke:#b22222;stroke-linejoin:bevel;" x="236.893097" xlink:href="#m4bd586516b" y="219.089894"/>
     <use style="fill:#b22222;stroke:#b22222;stroke-linejoin:bevel;" x="257.208994" xlink:href="#m4bd586516b" y="215.628059"/>
     <use style="fill:#b22222;stroke:#b22222;stroke-linejoin:bevel;" x="277.524891" xlink:href="#m4bd586516b" y="235.012155"/>
     <use style="fill:#b22222;stroke:#b22222;stroke-linejoin:bevel;" x="297.840789" xlink:href="#m4bd586516b" y="233.605942"/>
     <use style="fill:#b22222;stroke:#b22222;stroke-linejoin:bevel;" x="318.156686" xlink:href="#m4bd586516b" y="235.441526"/>
     <use style="fill:#b22222;stroke:#b22222;stroke-linejoin:bevel;" x="338.472583" xlink:href="#m4bd586516b" y="215.362241"/>
     <use style="fill:#b22222;stroke:#b22222;stroke-linejoin:bevel;" x="358.78848" xlink:href="#m4bd586516b" y="216.278216"/>
     <use style="fill:#b22222;stroke:#b22222;stroke-linejoin:bevel;" x="379.104377" xlink:href="#m4bd586516b" y="209.883337"/>
     <use style="fill:#b22222;stroke:#b22222;stroke-linejoin:bevel;" x="399.420274" xlink:href="#m4bd586516b" y="187.990786"/>
     <use style="fill:#b22222;stroke:#b22222;stroke-linejoin:bevel;" x="419.736171" xlink:href="#m4bd586516b" y="222.80158"/>
     <use style="fill:#b22222;stroke:#b22222;stroke-linejoin:bevel;" x="440.052069" xlink:href="#m4bd586516b" y="230.631429"/>
     <use style="fill:#b22222;stroke:#b22222;stroke-linejoin:bevel;" x="460.367966" xlink:href="#m4bd586516b" y="222.650323"/>
     <use style="fill:#b22222;stroke:#b22222;stroke-linejoin:bevel;" x="480.683863" xlink:href="#m4bd586516b" y="234.550758"/>
    </g>
   </g>
   <g id="axes_2">
    <g id="patch_3">
     <path d="M 54.050023 34.811085 
L 500.99976 34.811085 
L 500.99976 34.811085 
L 54.050023 34.811085 
z
" style="fill:#ffffff;"/>
    </g>
    <g id="matplotlib.axis_1">
     <g id="xtick_1">
      <g id="line2d_5">
       <defs>
        <path d="M 0 0 
L 0 -3.5 
" id="m4e0181c709" style="stroke:#000000;stroke-width:0.8;"/>
       </defs>
       <g>
        <use style="stroke:#000000;stroke-width:0.8;" x="109.076498" xlink:href="#m4e0181c709" y="34.811085"/>
       </g>
      </g>
      <g id="text_1">
       <!-- $\mathdefault{100}$ -->
       <g transform="translate(101.604495 25.873906)scale(0.1 -0.1)">
        <defs>
         <path d="M 1702 4083 
C 1702 4217 1696 4224 1606 4224 
C 1357 3927 979 3833 621 3820 
C 602 3820 570 3820 563 3808 
C 557 3795 557 3782 557 3648 
C 755 3648 1088 3686 1344 3839 
L 1344 467 
C 1344 243 1331 166 781 166 
L 589 166 
L 589 0 
C 896 6 1216 12 1523 12 
C 1830 12 2150 6 2458 0 
L 2458 166 
L 2266 166 
C 1715 166 1702 236 1702 467 
L 1702 4083 
z
" id="CMR17-31" transform="scale(0.015625)"/>
         <path d="M 2688 2038 
C 2688 2430 2682 3099 2413 3613 
C 2176 4063 1798 4224 1466 4224 
C 1158 4224 768 4082 525 3620 
C 269 3137 243 2539 243 2038 
C 243 1671 250 1112 448 623 
C 723 -39 1216 -128 1466 -128 
C 1760 -128 2208 -7 2470 604 
C 2662 1048 2688 1568 2688 2038 
z
M 1466 -26 
C 1056 -26 813 328 723 816 
C 653 1196 653 1749 653 2109 
C 653 2604 653 3015 736 3407 
C 858 3954 1216 4121 1466 4121 
C 1728 4121 2067 3947 2189 3420 
C 2272 3054 2278 2623 2278 2109 
C 2278 1691 2278 1176 2202 797 
C 2067 96 1690 -26 1466 -26 
z
" id="CMR17-30" transform="scale(0.015625)"/>
        </defs>
        <use transform="scale(0.996264)" xlink:href="#CMR17-31"/>
        <use transform="translate(45.690477 0)scale(0.996264)" xlink:href="#CMR17-30"/>
        <use transform="translate(91.380954 0)scale(0.996264)" xlink:href="#CMR17-30"/>
       </g>
      </g>
     </g>
     <g id="xtick_2">
      <g id="line2d_6">
       <g>
        <use style="stroke:#000000;stroke-width:0.8;" x="194.151444" xlink:href="#m4e0181c709" y="34.811085"/>
       </g>
      </g>
      <g id="text_2">
       <!-- $\mathdefault{150}$ -->
       <g transform="translate(186.679441 25.873906)scale(0.1 -0.1)">
        <defs>
         <path d="M 730 3750 
C 794 3724 1056 3641 1325 3641 
C 1920 3641 2246 3961 2432 4140 
C 2432 4191 2432 4224 2394 4224 
C 2387 4224 2374 4224 2323 4198 
C 2099 4102 1837 4032 1517 4032 
C 1325 4032 1037 4055 723 4191 
C 653 4224 640 4224 634 4224 
C 602 4224 595 4217 595 4090 
L 595 2231 
C 595 2113 595 2080 659 2080 
C 691 2080 704 2093 736 2139 
C 941 2435 1222 2560 1542 2560 
C 1766 2560 2246 2415 2246 1293 
C 2246 1087 2246 716 2054 422 
C 1894 159 1645 25 1370 25 
C 947 25 518 319 403 812 
C 429 806 480 793 506 793 
C 589 793 749 838 749 1036 
C 749 1209 627 1280 506 1280 
C 358 1280 262 1190 262 1011 
C 262 454 704 -128 1382 -128 
C 2042 -128 2669 441 2669 1267 
C 2669 2054 2170 2662 1549 2662 
C 1222 2662 947 2540 730 2304 
L 730 3750 
z
" id="CMR17-35" transform="scale(0.015625)"/>
        </defs>
        <use transform="scale(0.996264)" xlink:href="#CMR17-31"/>
        <use transform="translate(45.690477 0)scale(0.996264)" xlink:href="#CMR17-35"/>
        <use transform="translate(91.380954 0)scale(0.996264)" xlink:href="#CMR17-30"/>
       </g>
      </g>
     </g>
     <g id="xtick_3">
      <g id="line2d_7">
       <g>
        <use style="stroke:#000000;stroke-width:0.8;" x="279.22639" xlink:href="#m4e0181c709" y="34.811085"/>
       </g>
      </g>
      <g id="text_3">
       <!-- $\mathdefault{200}$ -->
       <g transform="translate(271.754387 25.873906)scale(0.1 -0.1)">
        <defs>
         <path d="M 2669 990 
L 2554 990 
C 2490 537 2438 460 2413 422 
C 2381 371 1920 371 1830 371 
L 602 371 
C 832 620 1280 1073 1824 1596 
C 2214 1966 2669 2400 2669 3033 
C 2669 3788 2067 4224 1395 4224 
C 691 4224 262 3603 262 3027 
C 262 2777 448 2745 525 2745 
C 589 2745 781 2783 781 3007 
C 781 3206 614 3264 525 3264 
C 486 3264 448 3257 422 3244 
C 544 3788 915 4057 1306 4057 
C 1862 4057 2227 3616 2227 3033 
C 2227 2477 1901 1998 1536 1583 
L 262 147 
L 262 0 
L 2515 0 
L 2669 990 
z
" id="CMR17-32" transform="scale(0.015625)"/>
        </defs>
        <use transform="scale(0.996264)" xlink:href="#CMR17-32"/>
        <use transform="translate(45.690477 0)scale(0.996264)" xlink:href="#CMR17-30"/>
        <use transform="translate(91.380954 0)scale(0.996264)" xlink:href="#CMR17-30"/>
       </g>
      </g>
     </g>
     <g id="xtick_4">
      <g id="line2d_8">
       <g>
        <use style="stroke:#000000;stroke-width:0.8;" x="364.301336" xlink:href="#m4e0181c709" y="34.811085"/>
       </g>
      </g>
      <g id="text_4">
       <!-- $\mathdefault{250}$ -->
       <g transform="translate(356.829334 25.873906)scale(0.1 -0.1)">
        <use transform="scale(0.996264)" xlink:href="#CMR17-32"/>
        <use transform="translate(45.690477 0)scale(0.996264)" xlink:href="#CMR17-35"/>
        <use transform="translate(91.380954 0)scale(0.996264)" xlink:href="#CMR17-30"/>
       </g>
      </g>
     </g>
     <g id="xtick_5">
      <g id="line2d_9">
       <g>
        <use style="stroke:#000000;stroke-width:0.8;" x="449.376283" xlink:href="#m4e0181c709" y="34.811085"/>
       </g>
      </g>
      <g id="text_5">
       <!-- $\mathdefault{300}$ -->
       <g transform="translate(441.90428 25.873906)scale(0.1 -0.1)">
        <defs>
         <path d="M 1414 2176 
C 1984 2176 2234 1673 2234 1094 
C 2234 322 1824 25 1453 25 
C 1114 25 563 193 390 691 
C 422 678 454 678 486 678 
C 640 678 755 780 755 947 
C 755 1132 614 1216 486 1216 
C 378 1216 211 1164 211 927 
C 211 335 787 -128 1466 -128 
C 2176 -128 2720 432 2720 1087 
C 2720 1718 2208 2176 1600 2246 
C 2086 2347 2554 2776 2554 3353 
C 2554 3856 2048 4224 1472 4224 
C 890 4224 378 3862 378 3347 
C 378 3123 544 3084 627 3084 
C 762 3084 877 3167 877 3334 
C 877 3500 762 3584 627 3584 
C 602 3584 570 3584 544 3571 
C 730 3999 1235 4076 1459 4076 
C 1683 4076 2106 3966 2106 3347 
C 2106 3167 2080 2851 1862 2574 
C 1670 2329 1453 2316 1242 2297 
C 1210 2297 1062 2284 1037 2284 
C 992 2278 966 2272 966 2227 
C 966 2182 973 2176 1101 2176 
L 1414 2176 
z
" id="CMR17-33" transform="scale(0.015625)"/>
        </defs>
        <use transform="scale(0.996264)" xlink:href="#CMR17-33"/>
        <use transform="translate(45.690477 0)scale(0.996264)" xlink:href="#CMR17-30"/>
        <use transform="translate(91.380954 0)scale(0.996264)" xlink:href="#CMR17-30"/>
       </g>
      </g>
     </g>
     <g id="text_6">
      <!-- Number of CFD Cases -->
      <g transform="translate(199.063658 14.955408)scale(0.1728 -0.1728)">
       <defs>
        <path d="M 1312 4275 
C 1267 4345 1261 4352 1139 4352 
L 326 4352 
L 326 4185 
L 448 4185 
C 704 4185 819 4153 838 4147 
L 838 624 
C 838 465 838 166 326 166 
L 326 0 
C 474 12 742 12 902 12 
C 1062 12 1331 12 1478 0 
L 1478 166 
C 966 166 966 465 966 624 
L 966 4057 
C 1011 4019 1011 4007 1056 3943 
L 3430 76 
C 3475 0 3494 0 3526 0 
C 3590 0 3590 19 3590 140 
L 3590 3726 
C 3590 3885 3590 4185 4102 4185 
L 4102 4352 
C 3955 4339 3686 4339 3526 4339 
C 3366 4339 3098 4339 2950 4352 
L 2950 4185 
C 3462 4185 3462 3885 3462 3726 
L 3462 777 
L 1312 4275 
z
" id="CMR17-4e" transform="scale(0.015625)"/>
        <path d="M 1882 2745 
L 1882 2579 
C 2259 2579 2317 2540 2317 2229 
L 2317 1053 
C 2317 510 2029 38 1555 38 
C 1030 38 986 355 986 691 
L 986 2816 
L 211 2745 
L 211 2579 
C 467 2579 640 2579 646 2320 
L 646 1079 
C 646 646 646 368 813 187 
C 896 103 1056 -64 1517 -64 
C 2061 -64 2272 400 2323 536 
L 2330 536 
L 2330 -64 
L 3091 -13 
L 3091 154 
C 2714 154 2656 193 2656 503 
L 2656 2816 
L 1882 2745 
z
" id="CMR17-75" transform="scale(0.015625)"/>
        <path d="M 4326 1954 
C 4326 2276 4269 2816 3507 2816 
C 3072 2816 2771 2520 2656 2173 
L 2650 2173 
C 2573 2700 2195 2816 1837 2816 
C 1331 2816 1069 2424 973 2166 
L 966 2166 
L 966 2816 
L 211 2745 
L 211 2578 
C 589 2578 646 2540 646 2231 
L 646 443 
C 646 198 621 166 211 166 
L 211 0 
C 365 12 646 12 813 12 
C 979 12 1267 12 1421 0 
L 1421 166 
C 1011 166 986 192 986 443 
L 986 1678 
C 986 2269 1344 2713 1792 2713 
C 2266 2713 2317 2289 2317 1980 
L 2317 443 
C 2317 198 2291 166 1882 166 
L 1882 0 
C 2035 12 2317 12 2483 12 
C 2650 12 2938 12 3091 0 
L 3091 166 
C 2682 166 2656 192 2656 443 
L 2656 1678 
C 2656 2269 3014 2713 3462 2713 
C 3936 2713 3987 2289 3987 1980 
L 3987 443 
C 3987 198 3962 166 3552 166 
L 3552 0 
C 3706 12 3987 12 4154 12 
C 4320 12 4608 12 4762 0 
L 4762 166 
C 4352 166 4326 192 4326 443 
L 4326 1954 
z
" id="CMR17-6d" transform="scale(0.015625)"/>
        <path d="M 960 4416 
L 198 4345 
L 198 4179 
C 576 4179 634 4141 634 3843 
L 634 -13 
L 749 -13 
L 934 445 
C 1120 141 1395 -64 1766 -64 
C 2406 -64 3053 503 3053 1382 
C 3053 2209 2477 2816 1830 2816 
C 1434 2816 1152 2603 960 2351 
L 960 4416 
z
M 973 2022 
C 973 2138 973 2157 1062 2293 
C 1312 2681 1670 2713 1792 2713 
C 1984 2713 2643 2610 2643 1388 
C 2643 109 1888 38 1734 38 
C 1536 38 1248 115 1043 490 
C 973 613 973 626 973 742 
L 973 2022 
z
" id="CMR17-62" transform="scale(0.015625)"/>
        <path d="M 2438 1503 
C 2464 1529 2464 1542 2464 1606 
C 2464 2251 2118 2816 1389 2816 
C 710 2816 173 2175 173 1394 
C 173 554 781 -64 1459 -64 
C 2176 -64 2458 619 2458 755 
C 2458 800 2419 800 2406 800 
C 2362 800 2355 787 2330 709 
C 2189 270 1837 51 1504 51 
C 1229 51 954 206 781 490 
C 582 819 582 1200 582 1503 
L 2438 1503 
z
M 589 1600 
C 634 2511 1126 2713 1382 2713 
C 1818 2713 2112 2308 2118 1600 
L 589 1600 
z
" id="CMR17-65" transform="scale(0.015625)"/>
        <path d="M 960 1517 
C 960 2134 1222 2713 1702 2713 
C 1747 2713 1792 2707 1837 2687 
C 1837 2687 1696 2642 1696 2475 
C 1696 2321 1818 2257 1914 2257 
C 1990 2257 2131 2302 2131 2482 
C 2131 2687 1926 2816 1709 2816 
C 1222 2816 1011 2340 947 2115 
L 941 2115 
L 941 2816 
L 198 2745 
L 198 2578 
C 576 2578 634 2540 634 2231 
L 634 443 
C 634 198 608 166 198 166 
L 198 0 
C 352 12 646 12 813 12 
C 998 12 1325 12 1498 0 
L 1498 166 
C 1037 166 960 166 960 455 
L 960 1517 
z
" id="CMR17-72" transform="scale(0.015625)"/>
        <path d="M 2758 1356 
C 2758 2176 2163 2816 1466 2816 
C 768 2816 173 2176 173 1356 
C 173 550 768 -64 1466 -64 
C 2163 -64 2758 550 2758 1356 
z
M 1466 51 
C 1165 51 909 230 762 480 
C 602 768 582 1126 582 1408 
C 582 1676 595 2009 762 2297 
C 890 2508 1139 2713 1466 2713 
C 1754 2713 1997 2553 2150 2329 
C 2349 2028 2349 1606 2349 1408 
C 2349 1158 2336 774 2163 467 
C 1984 172 1709 51 1466 51 
z
" id="CMR17-6f" transform="scale(0.015625)"/>
        <path d="M 979 2585 
L 1709 2585 
L 1709 2752 
L 966 2752 
L 966 3539 
C 966 4076 1235 4377 1510 4377 
C 1594 4377 1690 4363 1754 4339 
C 1702 4326 1568 4281 1568 4121 
C 1568 3955 1696 3904 1786 3904 
C 1875 3904 2003 3955 2003 4121 
C 2003 4353 1773 4480 1517 4480 
C 1152 4480 653 4211 653 3526 
L 653 2752 
L 141 2752 
L 141 2585 
L 653 2585 
L 653 441 
C 653 198 627 166 218 166 
L 218 0 
C 371 12 666 12 832 12 
C 1018 12 1344 12 1517 0 
L 1517 166 
C 1056 166 979 166 979 454 
L 979 2585 
z
" id="CMR17-66" transform="scale(0.015625)"/>
        <path d="M 3974 4351 
C 3974 4467 3968 4473 3930 4473 
C 3904 4473 3898 4467 3853 4390 
L 3571 3849 
C 3258 4249 2874 4480 2381 4480 
C 1286 4480 294 3507 294 2179 
C 294 837 1286 -128 2387 -128 
C 3366 -128 3974 741 3974 1482 
C 3974 1547 3974 1573 3917 1573 
C 3866 1573 3866 1553 3859 1495 
C 3808 592 3168 38 2477 38 
C 1824 38 781 502 781 2179 
C 781 3862 1843 4313 2464 4313 
C 3187 4313 3712 3681 3834 2785 
C 3846 2707 3846 2695 3904 2695 
C 3974 2695 3974 2707 3974 2824 
L 3974 4351 
z
" id="CMR17-43" transform="scale(0.015625)"/>
        <path d="M 3482 4339 
L 326 4339 
L 326 4172 
C 768 4172 838 4172 838 3883 
L 838 450 
C 838 166 768 166 326 166 
L 326 0 
C 512 12 870 12 1069 12 
C 1331 12 1638 12 1901 0 
L 1901 166 
L 1760 166 
C 1274 166 1261 229 1261 456 
L 1261 2073 
L 1837 2073 
C 2432 2073 2490 1865 2490 1334 
L 2605 1334 
L 2605 2991 
L 2490 2991 
C 2490 2451 2432 2240 1837 2240 
L 1261 2240 
L 1261 3922 
C 1261 4140 1274 4172 1530 4172 
L 2355 4172 
C 3322 4172 3430 3774 3520 2920 
L 3635 2920 
L 3482 4339 
z
" id="CMR17-46" transform="scale(0.015625)"/>
        <path d="M 333 4352 
L 333 4185 
C 774 4185 845 4185 845 3898 
L 845 453 
C 845 166 774 166 333 166 
L 333 0 
L 2368 0 
C 3398 0 4224 943 4224 2140 
C 4224 3344 3411 4352 2368 4352 
L 333 4352 
z
M 1523 166 
C 1267 166 1254 198 1254 414 
L 1254 3936 
C 1254 4153 1267 4185 1523 4185 
L 2240 4185 
C 2771 4185 3750 3873 3750 2140 
C 3750 1242 3488 879 3366 707 
C 3213 510 2848 166 2240 166 
L 1523 166 
z
" id="CMR17-44" transform="scale(0.015625)"/>
        <path d="M 2304 1656 
C 2304 2048 2304 2275 2035 2534 
C 1798 2751 1523 2816 1306 2816 
C 800 2816 435 2408 435 1977 
C 435 1740 627 1728 666 1728 
C 749 1728 896 1779 896 1958 
C 896 2118 774 2188 666 2188 
C 640 2188 608 2182 589 2176 
C 723 2594 1069 2713 1293 2713 
C 1613 2713 1965 2421 1965 1875 
L 1965 1632 
C 1587 1619 1133 1568 774 1373 
C 371 1147 256 822 256 576 
C 256 77 832 -64 1171 -64 
C 1523 -64 1850 135 1990 505 
C 2003 219 2182 -39 2464 -39 
C 2598 -39 2938 51 2938 563 
L 2938 926 
L 2822 926 
L 2822 557 
C 2822 161 2650 109 2566 109 
C 2304 109 2304 446 2304 732 
L 2304 1656 
z
M 1965 887 
C 1965 323 1568 38 1216 38 
C 896 38 646 278 646 576 
C 646 771 730 1114 1101 1322 
C 1408 1497 1760 1523 1965 1536 
L 1965 887 
z
" id="CMR17-61" transform="scale(0.015625)"/>
        <path d="M 1978 2688 
C 1978 2803 1971 2809 1933 2809 
C 1907 2809 1901 2803 1824 2707 
C 1805 2681 1747 2617 1728 2592 
C 1523 2809 1235 2816 1126 2816 
C 416 2816 160 2444 160 2073 
C 160 1497 813 1363 998 1324 
C 1402 1241 1542 1216 1677 1100 
C 1760 1024 1901 883 1901 652 
C 1901 384 1747 38 1158 38 
C 602 38 403 460 288 1024 
C 269 1113 269 1120 218 1120 
C 166 1120 160 1113 160 985 
L 160 64 
C 160 -52 166 -58 205 -58 
C 237 -58 243 -52 275 0 
C 314 57 410 211 448 275 
C 576 102 800 -64 1158 -64 
C 1792 -64 2131 281 2131 780 
C 2131 1107 1958 1280 1875 1356 
C 1683 1555 1459 1600 1190 1651 
C 838 1728 390 1817 390 2208 
C 390 2374 480 2726 1126 2726 
C 1811 2726 1850 2086 1862 1881 
C 1869 1849 1901 1843 1920 1843 
C 1978 1843 1978 1862 1978 1971 
L 1978 2688 
z
" id="CMR17-73" transform="scale(0.015625)"/>
       </defs>
       <use transform="scale(0.996264)" xlink:href="#CMR17-4e"/>
       <use transform="translate(69.07243 0)scale(0.996264)" xlink:href="#CMR17-75"/>
       <use transform="translate(119.9678 0)scale(0.996264)" xlink:href="#CMR17-6d"/>
       <use transform="translate(194.284936 0)scale(0.996264)" xlink:href="#CMR17-62"/>
       <use transform="translate(247.782744 0)scale(0.996264)" xlink:href="#CMR17-65"/>
       <use transform="translate(288.268404 0)scale(0.996264)" xlink:href="#CMR17-72"/>
       <use transform="translate(353.625139 0)scale(0.996264)" xlink:href="#CMR17-6f"/>
       <use transform="translate(399.315616 0)scale(0.996264)" xlink:href="#CMR17-66"/>
       <use transform="translate(456.865095 0)scale(0.996264)" xlink:href="#CMR17-43"/>
       <use transform="translate(523.374975 0)scale(0.996264)" xlink:href="#CMR17-46"/>
       <use transform="translate(583.358822 0)scale(0.996264)" xlink:href="#CMR17-44"/>
       <use transform="translate(683.828344 0)scale(0.996264)" xlink:href="#CMR17-43"/>
       <use transform="translate(750.338224 0)scale(0.996264)" xlink:href="#CMR17-61"/>
       <use transform="translate(796.028702 0)scale(0.996264)" xlink:href="#CMR17-73"/>
       <use transform="translate(831.830039 0)scale(0.996264)" xlink:href="#CMR17-65"/>
       <use transform="translate(872.3157 0)scale(0.996264)" xlink:href="#CMR17-73"/>
      </g>
     </g>
    </g>
    <g id="matplotlib.axis_2"/>
    <g id="patch_4">
     <path d="M 54.050023 34.811085 
L 500.99976 34.811085 
" style="fill:none;stroke:#000000;stroke-linecap:square;stroke-linejoin:miter;stroke-width:0.8;"/>
    </g>
   </g>
   <g id="matplotlib.axis_3">
    <g id="xtick_6">
     <g id="line2d_10">
      <defs>
       <path d="M 0 0 
L 0 3.5 
" id="m3f56dc3dea" style="stroke:#000000;stroke-width:0.8;"/>
      </defs>
      <g>
       <use style="stroke:#000000;stroke-width:0.8;" x="74.36592" xlink:href="#m3f56dc3dea" y="319.95856"/>
      </g>
     </g>
     <g id="text_7">
      <!-- $\mathdefault{20}$ -->
      <g transform="translate(69.384585 333.877058)scale(0.1 -0.1)">
       <use transform="scale(0.996264)" xlink:href="#CMR17-32"/>
       <use transform="translate(45.690477 0)scale(0.996264)" xlink:href="#CMR17-30"/>
      </g>
     </g>
    </g>
    <g id="xtick_7">
     <g id="line2d_11">
      <g>
       <use style="stroke:#000000;stroke-width:0.8;" x="142.085577" xlink:href="#m3f56dc3dea" y="319.95856"/>
      </g>
     </g>
     <g id="text_8">
      <!-- $\mathdefault{30}$ -->
      <g transform="translate(137.104242 333.877058)scale(0.1 -0.1)">
       <use transform="scale(0.996264)" xlink:href="#CMR17-33"/>
       <use transform="translate(45.690477 0)scale(0.996264)" xlink:href="#CMR17-30"/>
      </g>
     </g>
    </g>
    <g id="xtick_8">
     <g id="line2d_12">
      <g>
       <use style="stroke:#000000;stroke-width:0.8;" x="209.805234" xlink:href="#m3f56dc3dea" y="319.95856"/>
      </g>
     </g>
     <g id="text_9">
      <!-- $\mathdefault{40}$ -->
      <g transform="translate(204.823899 333.877058)scale(0.1 -0.1)">
       <defs>
        <path d="M 2150 4147 
C 2150 4281 2144 4288 2029 4288 
L 128 1254 
L 128 1088 
L 1779 1088 
L 1779 460 
C 1779 230 1766 166 1318 166 
L 1197 166 
L 1197 0 
C 1402 12 1747 12 1965 12 
C 2182 12 2528 12 2733 0 
L 2733 166 
L 2611 166 
C 2163 166 2150 230 2150 460 
L 2150 1088 
L 2803 1088 
L 2803 1254 
L 2150 1254 
L 2150 4147 
z
M 1798 3723 
L 1798 1254 
L 256 1254 
L 1798 3723 
z
" id="CMR17-34" transform="scale(0.015625)"/>
       </defs>
       <use transform="scale(0.996264)" xlink:href="#CMR17-34"/>
       <use transform="translate(45.690477 0)scale(0.996264)" xlink:href="#CMR17-30"/>
      </g>
     </g>
    </g>
    <g id="xtick_9">
     <g id="line2d_13">
      <g>
       <use style="stroke:#000000;stroke-width:0.8;" x="277.524891" xlink:href="#m3f56dc3dea" y="319.95856"/>
      </g>
     </g>
     <g id="text_10">
      <!-- $\mathdefault{50}$ -->
      <g transform="translate(272.543556 333.877058)scale(0.1 -0.1)">
       <use transform="scale(0.996264)" xlink:href="#CMR17-35"/>
       <use transform="translate(45.690477 0)scale(0.996264)" xlink:href="#CMR17-30"/>
      </g>
     </g>
    </g>
    <g id="xtick_10">
     <g id="line2d_14">
      <g>
       <use style="stroke:#000000;stroke-width:0.8;" x="345.244549" xlink:href="#m3f56dc3dea" y="319.95856"/>
      </g>
     </g>
     <g id="text_11">
      <!-- $\mathdefault{60}$ -->
      <g transform="translate(340.263213 333.877058)scale(0.1 -0.1)">
       <defs>
        <path d="M 678 2198 
C 678 3712 1395 4076 1811 4076 
C 1946 4076 2272 4049 2400 3782 
C 2298 3782 2106 3782 2106 3558 
C 2106 3385 2246 3328 2336 3328 
C 2394 3328 2566 3353 2566 3571 
C 2566 3987 2246 4224 1805 4224 
C 1043 4224 243 3411 243 2011 
C 243 257 966 -128 1478 -128 
C 2099 -128 2688 431 2688 1295 
C 2688 2101 2170 2688 1517 2688 
C 1126 2688 838 2430 678 1979 
L 678 2198 
z
M 1478 25 
C 691 25 691 1212 691 1450 
C 691 1914 909 2585 1504 2585 
C 1613 2585 1926 2585 2138 2140 
C 2253 1889 2253 1624 2253 1302 
C 2253 954 2253 696 2118 438 
C 1978 173 1773 25 1478 25 
z
" id="CMR17-36" transform="scale(0.015625)"/>
       </defs>
       <use transform="scale(0.996264)" xlink:href="#CMR17-36"/>
       <use transform="translate(45.690477 0)scale(0.996264)" xlink:href="#CMR17-30"/>
      </g>
     </g>
    </g>
    <g id="xtick_11">
     <g id="line2d_15">
      <g>
       <use style="stroke:#000000;stroke-width:0.8;" x="412.964206" xlink:href="#m3f56dc3dea" y="319.95856"/>
      </g>
     </g>
     <g id="text_12">
      <!-- $\mathdefault{70}$ -->
      <g transform="translate(407.98287 333.877058)scale(0.1 -0.1)">
       <defs>
        <path d="M 2886 3955 
L 2886 4096 
L 1382 4096 
C 634 4096 621 4166 595 4288 
L 480 4288 
L 294 3104 
L 410 3104 
C 429 3226 474 3552 550 3673 
C 589 3724 1062 3724 1171 3724 
L 2579 3724 
L 1869 2670 
C 1395 1961 1069 1003 1069 166 
C 1069 89 1069 -128 1299 -128 
C 1530 -128 1530 89 1530 172 
L 1530 466 
C 1530 1514 1709 2204 2003 2644 
L 2886 3955 
z
" id="CMR17-37" transform="scale(0.015625)"/>
       </defs>
       <use transform="scale(0.996264)" xlink:href="#CMR17-37"/>
       <use transform="translate(45.690477 0)scale(0.996264)" xlink:href="#CMR17-30"/>
      </g>
     </g>
    </g>
    <g id="xtick_12">
     <g id="line2d_16">
      <g>
       <use style="stroke:#000000;stroke-width:0.8;" x="480.683863" xlink:href="#m3f56dc3dea" y="319.95856"/>
      </g>
     </g>
     <g id="text_13">
      <!-- $\mathdefault{80}$ -->
      <g transform="translate(475.702528 333.877058)scale(0.1 -0.1)">
       <defs>
        <path d="M 1741 2289 
C 2144 2494 2554 2803 2554 3298 
C 2554 3884 1990 4224 1472 4224 
C 890 4224 378 3800 378 3215 
C 378 3054 416 2777 666 2533 
C 730 2469 998 2276 1171 2154 
C 883 2006 211 1652 211 945 
C 211 282 838 -128 1459 -128 
C 2144 -128 2720 366 2720 1022 
C 2720 1607 2330 1877 2074 2051 
L 1741 2289 
z
M 902 2855 
C 851 2887 595 3086 595 3388 
C 595 3781 998 4076 1459 4076 
C 1965 4076 2336 3716 2336 3298 
C 2336 2700 1670 2359 1638 2359 
C 1632 2359 1626 2359 1574 2398 
L 902 2855 
z
M 2080 1536 
C 2176 1466 2483 1253 2483 861 
C 2483 385 2010 25 1472 25 
C 890 25 448 443 448 951 
C 448 1459 838 1884 1280 2083 
L 2080 1536 
z
" id="CMR17-38" transform="scale(0.015625)"/>
       </defs>
       <use transform="scale(0.996264)" xlink:href="#CMR17-38"/>
       <use transform="translate(45.690477 0)scale(0.996264)" xlink:href="#CMR17-30"/>
      </g>
     </g>
    </g>
    <g id="text_14">
     <!-- Training Data Split (\%) -->
     <g transform="translate(194.712726 352.710303)scale(0.1728 -0.1728)">
      <defs>
       <path d="M 3981 4332 
L 288 4332 
L 179 2924 
L 294 2924 
C 378 3981 467 4166 1453 4166 
C 1568 4166 1754 4166 1805 4159 
C 1926 4140 1926 4064 1926 3917 
L 1926 465 
C 1926 236 1907 166 1376 166 
L 1197 166 
L 1197 0 
C 1504 6 1824 12 2138 12 
C 2451 12 2771 6 3078 0 
L 3078 166 
L 2899 166 
C 2368 166 2349 236 2349 465 
L 2349 3917 
C 2349 4057 2349 4134 2464 4159 
C 2515 4166 2701 4166 2816 4166 
C 3795 4166 3891 3981 3974 2924 
L 4090 2924 
L 3981 4332 
z
" id="CMR17-54" transform="scale(0.015625)"/>
       <path d="M 992 3961 
C 992 4102 877 4224 730 4224 
C 589 4224 467 4108 467 3961 
C 467 3820 582 3699 730 3699 
C 870 3699 992 3814 992 3961 
z
M 243 2745 
L 243 2579 
C 602 2579 653 2540 653 2231 
L 653 443 
C 653 198 627 166 218 166 
L 218 0 
C 371 12 646 12 806 12 
C 960 12 1222 12 1370 0 
L 1370 166 
C 992 166 979 205 979 436 
L 979 2816 
L 243 2745 
z
" id="CMR17-69" transform="scale(0.015625)"/>
       <path d="M 2656 1954 
C 2656 2282 2592 2816 1837 2816 
C 1331 2816 1069 2424 973 2166 
L 966 2166 
L 966 2816 
L 211 2745 
L 211 2578 
C 589 2578 646 2540 646 2231 
L 646 443 
C 646 198 621 166 211 166 
L 211 0 
C 365 12 646 12 813 12 
C 979 12 1267 12 1421 0 
L 1421 166 
C 1011 166 986 192 986 443 
L 986 1678 
C 986 2269 1344 2713 1792 2713 
C 2266 2713 2317 2289 2317 1980 
L 2317 443 
C 2317 198 2291 166 1882 166 
L 1882 0 
C 2035 12 2317 12 2483 12 
C 2650 12 2938 12 3091 0 
L 3091 166 
C 2682 166 2656 192 2656 443 
L 2656 1954 
z
" id="CMR17-6e" transform="scale(0.015625)"/>
       <path d="M 710 1165 
C 832 1068 1043 960 1299 960 
C 1805 960 2240 1359 2240 1895 
C 2240 2063 2189 2321 1997 2521 
C 2176 2713 2438 2777 2586 2777 
C 2611 2777 2650 2777 2682 2758 
C 2656 2751 2598 2726 2598 2623 
C 2598 2540 2656 2483 2739 2483 
C 2835 2483 2886 2547 2886 2630 
C 2886 2751 2790 2880 2586 2880 
C 2330 2880 2106 2758 1926 2591 
C 1734 2764 1504 2828 1299 2828 
C 794 2828 358 2431 358 1895 
C 358 1527 570 1294 634 1230 
C 442 1004 442 742 442 710 
C 442 544 506 300 723 166 
C 390 82 128 -184 128 -517 
C 128 -996 736 -1344 1466 -1344 
C 2170 -1344 2803 -1009 2803 -510 
C 2803 384 1856 384 1363 384 
C 1216 384 954 384 922 390 
C 723 422 589 601 589 825 
C 589 883 589 1024 710 1165 
z
M 1299 1068 
C 736 1068 736 1766 736 1895 
C 736 2024 736 2719 1299 2719 
C 1862 2719 1862 2024 1862 1895 
C 1862 1766 1862 1068 1299 1068 
z
M 1466 -1236 
C 826 -1236 384 -883 384 -517 
C 384 -311 493 -118 634 -11 
C 794 102 858 102 1293 102 
C 1818 102 2547 102 2547 -517 
C 2547 -883 2106 -1236 1466 -1236 
z
" id="CMR17-67" transform="scale(0.015625)"/>
       <path d="M 966 2585 
L 1862 2585 
L 1862 2752 
L 966 2752 
L 966 3968 
L 851 3968 
C 838 3292 614 2700 70 2687 
L 70 2585 
L 627 2585 
L 627 778 
C 627 655 627 -64 1370 -64 
C 1747 -64 1965 308 1965 784 
L 1965 1151 
L 1850 1151 
L 1850 790 
C 1850 347 1677 51 1408 51 
C 1222 51 966 179 966 765 
L 966 2585 
z
" id="CMR17-74" transform="scale(0.015625)"/>
       <path d="M 2803 4351 
C 2803 4467 2797 4473 2758 4473 
C 2720 4473 2707 4447 2682 4390 
L 2490 3965 
C 2246 4320 1875 4480 1472 4480 
C 819 4480 294 3958 294 3301 
C 294 3101 339 2817 557 2546 
C 794 2250 1018 2198 1530 2063 
C 1722 2011 2042 1927 2106 1901 
C 2470 1747 2662 1360 2662 999 
C 2662 534 2336 38 1779 38 
C 1094 38 454 425 410 1328 
C 403 1431 397 1437 352 1437 
C 301 1437 294 1431 294 1302 
L 294 0 
C 294 -116 301 -122 339 -122 
C 384 -122 397 -90 486 109 
C 493 128 493 141 614 386 
C 934 -39 1472 -128 1779 -128 
C 2477 -128 2970 457 2970 1141 
C 2970 1476 2848 1734 2778 1850 
C 2509 2263 2221 2340 1914 2417 
C 1869 2437 1856 2437 1498 2527 
C 1152 2617 1005 2662 845 2836 
C 666 3036 602 3243 602 3449 
C 602 3868 934 4326 1478 4326 
C 2157 4326 2579 3842 2675 3036 
C 2694 2920 2701 2914 2746 2914 
C 2803 2914 2803 2933 2803 3043 
L 2803 4351 
z
" id="CMR17-53" transform="scale(0.015625)"/>
       <path d="M 1408 -1114 
C 998 -1114 973 -1088 973 -834 
L 973 380 
C 1158 109 1427 -64 1766 -64 
C 2406 -64 3053 503 3053 1382 
C 3053 2196 2496 2816 1837 2816 
C 1453 2816 1139 2603 960 2345 
L 960 2816 
L 198 2745 
L 198 2577 
C 576 2577 634 2539 634 2228 
L 634 -834 
C 634 -1081 608 -1114 198 -1114 
L 198 -1280 
C 352 -1268 634 -1268 800 -1268 
C 966 -1268 1254 -1268 1408 -1280 
L 1408 -1114 
z
M 973 2015 
C 973 2106 973 2241 1222 2481 
C 1254 2506 1472 2700 1792 2700 
C 2259 2700 2643 2112 2643 1376 
C 2643 639 2234 38 1728 38 
C 1498 38 1248 148 1056 451 
C 973 594 973 632 973 736 
L 973 2015 
z
" id="CMR17-70" transform="scale(0.015625)"/>
       <path d="M 979 4416 
L 218 4345 
L 218 4179 
C 595 4179 653 4141 653 3835 
L 653 439 
C 653 198 627 166 218 166 
L 218 0 
C 371 12 653 12 813 12 
C 979 12 1261 12 1414 0 
L 1414 166 
C 1005 166 979 191 979 439 
L 979 4416 
z
" id="CMR17-6c" transform="scale(0.015625)"/>
       <path d="M 1958 -1562 
C 1958 -1556 1958 -1543 1939 -1524 
C 1645 -1223 858 -403 858 1596 
C 858 3595 1632 4408 1946 4729 
C 1946 4735 1958 4748 1958 4767 
C 1958 4787 1939 4800 1914 4800 
C 1843 4800 1299 4325 986 3620 
C 666 2909 576 2218 576 1603 
C 576 1141 621 360 1005 -467 
C 1312 -1133 1837 -1600 1914 -1600 
C 1946 -1600 1958 -1588 1958 -1562 
z
" id="CMR17-28" transform="scale(0.015625)"/>
       <path d="M 4640 928 
C 4640 1670 4275 2214 3846 2214 
C 3411 2214 2970 1708 2970 928 
C 2970 147 3405 -359 3846 -359 
C 4275 -359 4640 179 4640 928 
z
M 3853 -256 
C 3686 -256 3270 -103 3270 928 
C 3270 1964 3686 2112 3853 2112 
C 4205 2112 4525 1606 4525 928 
C 4525 249 4205 -256 3853 -256 
z
M 4083 4572 
C 4128 4644 4134 4651 4134 4684 
C 4134 4761 4077 4800 4026 4800 
C 3962 4800 3936 4755 3891 4703 
C 3520 4155 3008 4096 2746 4096 
C 2106 4096 1715 4479 1594 4598 
C 1510 4677 1389 4800 1171 4800 
C 736 4800 294 4281 294 3496 
C 294 2718 730 2214 1171 2214 
C 1600 2214 1965 2750 1965 3496 
C 1965 3936 1830 4241 1811 4281 
C 2202 4025 2586 3993 2752 3993 
C 3162 3993 3456 4148 3616 4261 
L 3622 4254 
L 858 -122 
C 800 -212 800 -224 800 -244 
C 800 -314 858 -359 915 -359 
C 973 -359 992 -327 1037 -256 
L 4083 4572 
z
M 1178 2316 
C 1011 2316 595 2469 595 3496 
C 595 4545 1011 4697 1178 4697 
C 1530 4697 1850 4175 1850 3496 
C 1850 2820 1530 2316 1178 2316 
z
" id="CMR17-25" transform="scale(0.015625)"/>
       <path d="M 1683 1596 
C 1683 2057 1638 2839 1254 3665 
C 947 4332 422 4800 346 4800 
C 326 4800 301 4793 301 4761 
C 301 4748 307 4742 314 4729 
C 621 4408 1402 3595 1402 1603 
C 1402 -396 627 -1210 314 -1530 
C 307 -1543 301 -1549 301 -1562 
C 301 -1594 326 -1600 346 -1600 
C 416 -1600 960 -1127 1274 -422 
C 1594 289 1683 981 1683 1596 
z
" id="CMR17-29" transform="scale(0.015625)"/>
      </defs>
      <use transform="scale(0.996264)" xlink:href="#CMR17-54"/>
      <use transform="translate(58.702625 0)scale(0.996264)" xlink:href="#CMR17-72"/>
      <use transform="translate(93.983393 0)scale(0.996264)" xlink:href="#CMR17-61"/>
      <use transform="translate(139.67387 0)scale(0.996264)" xlink:href="#CMR17-69"/>
      <use transform="translate(164.544929 0)scale(0.996264)" xlink:href="#CMR17-6e"/>
      <use transform="translate(215.440298 0)scale(0.996264)" xlink:href="#CMR17-69"/>
      <use transform="translate(240.311357 0)scale(0.996264)" xlink:href="#CMR17-6e"/>
      <use transform="translate(291.206727 0)scale(0.996264)" xlink:href="#CMR17-67"/>
      <use transform="translate(366.97317 0)scale(0.996264)" xlink:href="#CMR17-44"/>
      <use transform="translate(437.366726 0)scale(0.996264)" xlink:href="#CMR17-61"/>
      <use transform="translate(483.057203 0)scale(0.996264)" xlink:href="#CMR17-74"/>
      <use transform="translate(518.337971 0)scale(0.996264)" xlink:href="#CMR17-61"/>
      <use transform="translate(594.104414 0)scale(0.996264)" xlink:href="#CMR17-53"/>
      <use transform="translate(644.999784 0)scale(0.996264)" xlink:href="#CMR17-70"/>
      <use transform="translate(695.895154 0)scale(0.996264)" xlink:href="#CMR17-6c"/>
      <use transform="translate(720.766212 0)scale(0.996264)" xlink:href="#CMR17-69"/>
      <use transform="translate(745.637271 0)scale(0.996264)" xlink:href="#CMR17-74"/>
      <use transform="translate(810.994005 0)scale(0.996264)" xlink:href="#CMR17-28"/>
      <use transform="translate(846.274773 0)scale(0.996264)" xlink:href="#CMR17-25"/>
      <use transform="translate(923.194363 0)scale(0.996264)" xlink:href="#CMR17-29"/>
     </g>
    </g>
   </g>
   <g id="matplotlib.axis_4">
    <g id="ytick_1">
     <g id="line2d_17">
      <defs>
       <path d="M 0 0 
L -3.5 0 
" id="mf763f38b93" style="stroke:#000000;stroke-width:0.8;"/>
      </defs>
      <g>
       <use style="stroke:#000000;stroke-width:0.8;" x="54.050023" xlink:href="#mf763f38b93" y="288.669043"/>
      </g>
     </g>
     <g id="text_15">
      <!-- $\mathdefault{2}$ -->
      <g transform="translate(42.068688 292.128292)scale(0.1 -0.1)">
       <use transform="scale(0.996264)" xlink:href="#CMR17-32"/>
      </g>
     </g>
    </g>
    <g id="ytick_2">
     <g id="line2d_18">
      <g>
       <use style="stroke:#000000;stroke-width:0.8;" x="54.050023" xlink:href="#mf763f38b93" y="253.267861"/>
      </g>
     </g>
     <g id="text_16">
      <!-- $\mathdefault{3}$ -->
      <g transform="translate(42.068688 256.72711)scale(0.1 -0.1)">
       <use transform="scale(0.996264)" xlink:href="#CMR17-33"/>
      </g>
     </g>
    </g>
    <g id="ytick_3">
     <g id="line2d_19">
      <g>
       <use style="stroke:#000000;stroke-width:0.8;" x="54.050023" xlink:href="#mf763f38b93" y="217.866678"/>
      </g>
     </g>
     <g id="text_17">
      <!-- $\mathdefault{4}$ -->
      <g transform="translate(42.068688 221.325927)scale(0.1 -0.1)">
       <use transform="scale(0.996264)" xlink:href="#CMR17-34"/>
      </g>
     </g>
    </g>
    <g id="ytick_4">
     <g id="line2d_20">
      <g>
       <use style="stroke:#000000;stroke-width:0.8;" x="54.050023" xlink:href="#mf763f38b93" y="182.465495"/>
      </g>
     </g>
     <g id="text_18">
      <!-- $\mathdefault{5}$ -->
      <g transform="translate(42.068688 185.924744)scale(0.1 -0.1)">
       <use transform="scale(0.996264)" xlink:href="#CMR17-35"/>
      </g>
     </g>
    </g>
    <g id="ytick_5">
     <g id="line2d_21">
      <g>
       <use style="stroke:#000000;stroke-width:0.8;" x="54.050023" xlink:href="#mf763f38b93" y="147.064313"/>
      </g>
     </g>
     <g id="text_19">
      <!-- $\mathdefault{6}$ -->
      <g transform="translate(42.068688 150.523562)scale(0.1 -0.1)">
       <use transform="scale(0.996264)" xlink:href="#CMR17-36"/>
      </g>
     </g>
    </g>
    <g id="ytick_6">
     <g id="line2d_22">
      <g>
       <use style="stroke:#000000;stroke-width:0.8;" x="54.050023" xlink:href="#mf763f38b93" y="111.66313"/>
      </g>
     </g>
     <g id="text_20">
      <!-- $\mathdefault{7}$ -->
      <g transform="translate(42.068688 115.122379)scale(0.1 -0.1)">
       <use transform="scale(0.996264)" xlink:href="#CMR17-37"/>
      </g>
     </g>
    </g>
    <g id="ytick_7">
     <g id="line2d_23">
      <g>
       <use style="stroke:#000000;stroke-width:0.8;" x="54.050023" xlink:href="#mf763f38b93" y="76.261947"/>
      </g>
     </g>
     <g id="text_21">
      <!-- $\mathdefault{8}$ -->
      <g transform="translate(42.068688 79.721196)scale(0.1 -0.1)">
       <use transform="scale(0.996264)" xlink:href="#CMR17-38"/>
      </g>
     </g>
    </g>
    <g id="ytick_8">
     <g id="line2d_24">
      <g>
       <use style="stroke:#000000;stroke-width:0.8;" x="54.050023" xlink:href="#mf763f38b93" y="40.860765"/>
      </g>
     </g>
     <g id="text_22">
      <!-- $\mathdefault{9}$ -->
      <g transform="translate(42.068688 44.320014)scale(0.1 -0.1)">
       <defs>
        <path d="M 2253 1871 
C 2253 448 1670 25 1190 25 
C 1043 25 685 43 538 281 
C 704 256 826 345 826 505 
C 826 678 685 736 595 736 
C 538 736 365 710 365 492 
C 365 68 742 -128 1203 -128 
C 1939 -128 2688 665 2688 2090 
C 2688 3857 1971 4224 1485 4224 
C 851 4224 243 3664 243 2800 
C 243 2000 762 1408 1414 1408 
C 1952 1408 2189 1910 2253 2122 
L 2253 1871 
z
M 1427 1510 
C 1254 1510 1011 1542 813 1929 
C 678 2181 678 2477 678 2793 
C 678 3174 678 3438 858 3722 
C 947 3857 1114 4076 1485 4076 
C 2240 4076 2240 2909 2240 2651 
C 2240 2193 2035 1510 1427 1510 
z
" id="CMR17-39" transform="scale(0.015625)"/>
       </defs>
       <use transform="scale(0.996264)" xlink:href="#CMR17-39"/>
      </g>
     </g>
    </g>
    <g id="text_23">
     <!-- Median Heat Flux  -->
     <g transform="translate(14.955408 240.651114)rotate(-90)scale(0.1728 -0.1728)">
      <defs>
       <path d="M 1338 4249 
C 1299 4345 1293 4352 1158 4352 
L 339 4352 
L 339 4185 
C 781 4185 851 4185 851 3898 
L 851 624 
C 851 465 851 166 339 166 
L 339 0 
C 486 12 755 12 915 12 
C 1075 12 1344 12 1491 0 
L 1491 166 
C 979 166 979 465 979 624 
L 979 4159 
L 986 4159 
L 2490 102 
C 2515 38 2528 0 2579 0 
C 2630 0 2643 38 2669 102 
L 4186 4191 
L 4192 4191 
L 4192 453 
C 4192 166 4122 166 3680 166 
L 3680 0 
C 3853 12 4198 12 4384 12 
C 4570 12 4922 12 5094 0 
L 5094 166 
C 4653 166 4582 166 4582 453 
L 4582 3898 
C 4582 4185 4653 4185 5094 4185 
L 5094 4352 
L 4282 4352 
C 4147 4352 4141 4345 4102 4249 
L 2720 516 
L 1338 4249 
z
" id="CMR17-4d" transform="scale(0.015625)"/>
       <path d="M 1869 4345 
L 1869 4179 
C 2246 4179 2304 4141 2304 3843 
L 2304 2371 
C 2278 2403 2016 2816 1498 2816 
C 845 2816 211 2228 211 1376 
C 211 529 806 -64 1434 -64 
C 1978 -64 2259 361 2291 406 
L 2291 -64 
L 3066 -13 
L 3066 154 
C 2688 154 2630 193 2630 503 
L 2630 4416 
L 1869 4345 
z
M 2291 762 
C 2291 568 2176 393 2029 264 
C 1811 70 1594 38 1472 38 
C 1286 38 621 135 621 1369 
C 621 2636 1363 2713 1530 2713 
C 1824 2713 2061 2545 2208 2313 
C 2291 2177 2291 2157 2291 2041 
L 2291 762 
z
" id="CMR17-64" transform="scale(0.015625)"/>
       <path d="M 3590 3898 
C 3590 4185 3661 4185 4102 4185 
L 4102 4352 
C 3917 4339 3578 4339 3379 4339 
C 3181 4339 2842 4339 2656 4352 
L 2656 4185 
C 3098 4185 3168 4185 3168 3898 
L 3168 2342 
L 1261 2342 
L 1261 3898 
C 1261 4185 1331 4185 1773 4185 
L 1773 4352 
C 1587 4339 1248 4339 1050 4339 
C 851 4339 512 4339 326 4352 
L 326 4185 
C 768 4185 838 4185 838 3898 
L 838 452 
C 838 166 768 166 326 166 
L 326 0 
C 512 12 851 12 1050 12 
C 1248 12 1587 12 1773 0 
L 1773 166 
C 1331 166 1261 166 1261 452 
L 1261 2176 
L 3168 2176 
L 3168 452 
C 3168 166 3098 166 2656 166 
L 2656 0 
C 2842 12 3181 12 3379 12 
C 3578 12 3917 12 4102 0 
L 4102 166 
C 3661 166 3590 166 3590 452 
L 3590 3898 
z
" id="CMR17-48" transform="scale(0.015625)"/>
       <path d="M 1664 1491 
C 1856 1740 2074 2022 2253 2233 
C 2464 2476 2707 2579 2989 2585 
L 2989 2752 
C 2880 2745 2656 2739 2541 2739 
C 2368 2739 2170 2739 2022 2752 
L 2022 2585 
C 2112 2572 2163 2508 2163 2419 
C 2163 2304 2099 2233 2067 2188 
L 1594 1587 
L 1030 2323 
C 973 2393 973 2406 973 2438 
C 973 2515 1037 2579 1146 2585 
L 1146 2752 
C 992 2739 717 2739 557 2739 
C 384 2739 179 2739 38 2752 
L 38 2585 
C 384 2585 461 2560 614 2368 
L 1350 1414 
C 1363 1401 1395 1363 1395 1344 
C 1395 1318 838 633 768 544 
C 480 198 179 172 6 166 
L 6 0 
C 115 6 339 12 454 12 
C 582 12 864 12 979 0 
L 979 166 
C 941 172 838 185 838 332 
C 838 448 890 518 947 595 
L 1478 1248 
L 2035 524 
C 2086 454 2163 358 2163 313 
C 2163 224 2086 172 1984 166 
L 1984 0 
C 2138 12 2413 12 2573 12 
C 2746 12 2950 12 3091 0 
L 3091 166 
C 2771 166 2675 179 2522 377 
L 1664 1491 
z
" id="CMR17-78" transform="scale(0.015625)"/>
      </defs>
      <use transform="scale(0.996264)" xlink:href="#CMR17-4d"/>
      <use transform="translate(84.686941 0)scale(0.996264)" xlink:href="#CMR17-65"/>
      <use transform="translate(125.172601 0)scale(0.996264)" xlink:href="#CMR17-64"/>
      <use transform="translate(176.067971 0)scale(0.996264)" xlink:href="#CMR17-69"/>
      <use transform="translate(200.939029 0)scale(0.996264)" xlink:href="#CMR17-61"/>
      <use transform="translate(246.629506 0)scale(0.996264)" xlink:href="#CMR17-6e"/>
      <use transform="translate(327.600843 0)scale(0.996264)" xlink:href="#CMR17-48"/>
      <use transform="translate(396.673272 0)scale(0.996264)" xlink:href="#CMR17-65"/>
      <use transform="translate(437.158933 0)scale(0.996264)" xlink:href="#CMR17-61"/>
      <use transform="translate(482.84941 0)scale(0.996264)" xlink:href="#CMR17-74"/>
      <use transform="translate(548.206144 0)scale(0.996264)" xlink:href="#CMR17-46"/>
      <use transform="translate(608.189991 0)scale(0.996264)" xlink:href="#CMR17-6c"/>
      <use transform="translate(633.061049 0)scale(0.996264)" xlink:href="#CMR17-75"/>
      <use transform="translate(683.956419 0)scale(0.996264)" xlink:href="#CMR17-78"/>
     </g>
     <!--  Peak To Peak Percent Difference (\%) -->
     <g transform="translate(33.779231 305.87734)rotate(-90)scale(0.1728 -0.1728)">
      <defs>
       <path d="M 1267 2048 
L 2291 2048 
C 3117 2048 3718 2583 3718 3187 
C 3718 3791 3130 4352 2291 4352 
L 333 4352 
L 333 4185 
C 774 4185 845 4185 845 3899 
L 845 453 
C 845 166 774 166 333 166 
L 333 0 
C 518 12 858 12 1056 12 
C 1254 12 1594 12 1779 0 
L 1779 166 
C 1338 166 1267 166 1267 453 
L 1267 2048 
z
M 1254 2182 
L 1254 3937 
C 1254 4153 1267 4185 1523 4185 
L 2170 4185 
C 2995 4185 3232 3715 3232 3187 
C 3232 2608 2950 2182 2170 2182 
L 1254 2182 
z
" id="CMR17-50" transform="scale(0.015625)"/>
       <path d="M 1670 1679 
C 1664 1692 1632 1730 1632 1749 
C 1632 1762 2086 2175 2144 2226 
C 2509 2532 2739 2563 2906 2570 
L 2906 2735 
C 2867 2735 2854 2735 2848 2729 
L 2534 2722 
C 2355 2722 2080 2722 1907 2735 
L 1907 2570 
C 1997 2563 2061 2513 2061 2423 
C 2061 2296 1933 2175 1926 2175 
L 960 1298 
L 960 4416 
L 198 4345 
L 198 4179 
C 576 4179 634 4141 634 3835 
L 634 439 
C 634 198 608 166 198 166 
L 198 0 
C 352 12 634 12 794 12 
C 954 12 1235 12 1389 0 
L 1389 166 
C 979 166 954 191 954 439 
L 954 1139 
L 1395 1540 
L 2042 586 
C 2118 471 2182 382 2182 299 
C 2182 185 2067 166 1990 166 
L 1990 0 
C 2144 12 2419 12 2579 12 
C 2694 12 2931 6 3040 0 
L 3040 166 
C 2739 166 2669 223 2477 503 
L 1670 1679 
z
" id="CMR17-6b" transform="scale(0.015625)"/>
       <path d="M 2234 2240 
C 2112 2240 1933 2240 1933 2015 
C 1933 1836 2080 1785 2163 1785 
C 2208 1785 2394 1804 2394 2028 
C 2394 2476 1958 2816 1466 2816 
C 787 2816 211 2201 211 1379 
C 211 521 813 -64 1466 -64 
C 2259 -64 2458 676 2458 747 
C 2458 773 2451 792 2406 792 
C 2362 792 2355 786 2330 702 
C 2163 180 1798 51 1523 51 
C 1114 51 621 431 621 1385 
C 621 2358 1094 2700 1472 2700 
C 1722 2700 2093 2582 2234 2240 
z
" id="CMR17-63" transform="scale(0.015625)"/>
       <path d="M 2554 2585 
L 3283 2585 
L 3283 2752 
L 2541 2752 
L 2541 3520 
C 2541 4047 2810 4377 3085 4377 
C 3168 4377 3264 4352 3328 4307 
C 3277 4294 3142 4250 3142 4091 
C 3142 3926 3270 3875 3360 3875 
C 3450 3875 3578 3926 3578 4091 
C 3578 4333 3347 4480 3091 4480 
C 2842 4480 2637 4358 2477 4206 
C 2330 4415 2086 4480 1837 4480 
C 1338 4480 634 4193 634 3494 
L 634 2752 
L 122 2752 
L 122 2585 
L 634 2585 
L 634 441 
C 634 198 608 166 198 166 
L 198 0 
C 352 12 634 12 794 12 
C 960 12 1242 12 1395 0 
L 1395 166 
C 986 166 960 192 960 441 
L 960 2585 
L 2227 2585 
L 2227 441 
C 2227 198 2202 166 1792 166 
L 1792 0 
C 1946 12 2240 12 2406 12 
C 2592 12 2918 12 3091 0 
L 3091 166 
C 2630 166 2554 166 2554 454 
L 2554 2585 
z
M 947 2752 
L 947 3494 
C 947 4072 1395 4377 1824 4377 
C 1920 4377 2170 4358 2323 4218 
C 2208 4212 2099 4161 2099 4002 
C 2099 3837 2246 3793 2259 3793 
C 2227 3679 2227 3552 2227 3507 
L 2227 2752 
L 947 2752 
z
" id="CMR17-b" transform="scale(0.015625)"/>
      </defs>
      <use transform="scale(0.996264)" xlink:href="#CMR17-50"/>
      <use transform="translate(59.983847 0)scale(0.996264)" xlink:href="#CMR17-65"/>
      <use transform="translate(100.469507 0)scale(0.996264)" xlink:href="#CMR17-61"/>
      <use transform="translate(146.159984 0)scale(0.996264)" xlink:href="#CMR17-6b"/>
      <use transform="translate(224.528866 0)scale(0.996264)" xlink:href="#CMR17-54"/>
      <use transform="translate(283.231492 0)scale(0.996264)" xlink:href="#CMR17-6f"/>
      <use transform="translate(358.997935 0)scale(0.996264)" xlink:href="#CMR17-50"/>
      <use transform="translate(418.981782 0)scale(0.996264)" xlink:href="#CMR17-65"/>
      <use transform="translate(459.467442 0)scale(0.996264)" xlink:href="#CMR17-61"/>
      <use transform="translate(505.157919 0)scale(0.996264)" xlink:href="#CMR17-6b"/>
      <use transform="translate(583.526801 0)scale(0.996264)" xlink:href="#CMR17-50"/>
      <use transform="translate(643.510648 0)scale(0.996264)" xlink:href="#CMR17-65"/>
      <use transform="translate(683.996308 0)scale(0.996264)" xlink:href="#CMR17-72"/>
      <use transform="translate(719.277076 0)scale(0.996264)" xlink:href="#CMR17-63"/>
      <use transform="translate(759.762737 0)scale(0.996264)" xlink:href="#CMR17-65"/>
      <use transform="translate(800.248397 0)scale(0.996264)" xlink:href="#CMR17-6e"/>
      <use transform="translate(848.541313 0)scale(0.996264)" xlink:href="#CMR17-74"/>
      <use transform="translate(913.898047 0)scale(0.996264)" xlink:href="#CMR17-44"/>
      <use transform="translate(984.291603 0)scale(0.996264)" xlink:href="#CMR17-69"/>
      <use transform="translate(1009.162662 0)scale(0.996264)" xlink:href="#CMR17-b"/>
      <use transform="translate(1061.507339 0)scale(0.996264)" xlink:href="#CMR17-65"/>
      <use transform="translate(1101.992999 0)scale(0.996264)" xlink:href="#CMR17-72"/>
      <use transform="translate(1137.273767 0)scale(0.996264)" xlink:href="#CMR17-65"/>
      <use transform="translate(1177.759428 0)scale(0.996264)" xlink:href="#CMR17-6e"/>
      <use transform="translate(1228.654797 0)scale(0.996264)" xlink:href="#CMR17-63"/>
      <use transform="translate(1269.140458 0)scale(0.996264)" xlink:href="#CMR17-65"/>
      <use transform="translate(1339.702085 0)scale(0.996264)" xlink:href="#CMR17-28"/>
      <use transform="translate(1374.982852 0)scale(0.996264)" xlink:href="#CMR17-25"/>
      <use transform="translate(1451.902442 0)scale(0.996264)" xlink:href="#CMR17-29"/>
     </g>
    </g>
   </g>
   <g id="patch_5">
    <path d="M 54.050023 319.95856 
L 54.050023 34.811085 
" style="fill:none;stroke:#000000;stroke-linecap:square;stroke-linejoin:miter;stroke-width:0.8;"/>
   </g>
   <g id="patch_6">
    <path d="M 500.99976 319.95856 
L 500.99976 34.811085 
" style="fill:none;stroke:#000000;stroke-linecap:square;stroke-linejoin:miter;stroke-width:0.8;"/>
   </g>
   <g id="patch_7">
    <path d="M 54.050023 319.95856 
L 500.99976 319.95856 
" style="fill:none;stroke:#000000;stroke-linecap:square;stroke-linejoin:miter;stroke-width:0.8;"/>
   </g>
   <g id="patch_8">
    <path d="M 54.050023 34.811085 
L 500.99976 34.811085 
" style="fill:none;stroke:#000000;stroke-linecap:square;stroke-linejoin:miter;stroke-width:0.8;"/>
   </g>
   <g id="legend_1">
    <g id="patch_9">
     <path d="M 219.925244 144.973254 
L 488.90376 144.973254 
Q 492.35976 144.973254 492.35976 141.517254 
L 492.35976 46.907085 
Q 492.35976 43.451085 488.90376 43.451085 
L 219.925244 43.451085 
Q 216.469244 43.451085 216.469244 46.907085 
L 216.469244 141.517254 
Q 216.469244 144.973254 219.925244 144.973254 
z
" style="fill:#ffffff;opacity:0.8;stroke:#cccccc;stroke-linejoin:miter;"/>
    </g>
    <g id="line2d_25">
     <path d="M 223.381244 56.411085 
L 257.941244 56.411085 
" style="fill:none;stroke:#87ceeb;stroke-dasharray:2.775,1.2;stroke-dashoffset:0;stroke-width:0.75;"/>
    </g>
    <g id="line2d_26">
     <g>
      <use style="fill:#87ceeb;stroke:#87ceeb;" x="240.661244" xlink:href="#mea7c2fcdf1" y="56.411085"/>
     </g>
    </g>
    <g id="text_24">
     <!-- Single Fidelity Kriging -->
     <g transform="translate(271.765244 62.459085)scale(0.1728 -0.1728)">
      <defs>
       <path d="M 2496 2183 
C 2656 2579 2944 2585 3034 2585 
L 3034 2752 
C 2912 2745 2752 2739 2630 2739 
C 2496 2739 2285 2739 2157 2752 
L 2157 2585 
C 2400 2566 2406 2384 2406 2332 
C 2406 2268 2394 2235 2362 2158 
L 1664 409 
L 902 2300 
C 870 2378 870 2423 870 2430 
C 870 2572 1018 2585 1171 2585 
L 1171 2752 
C 1018 2739 742 2739 582 2739 
C 410 2739 205 2739 64 2752 
L 64 2585 
C 410 2585 448 2553 531 2345 
L 1485 -31 
C 1197 -795 1030 -1242 627 -1242 
C 557 -1242 397 -1223 282 -1106 
C 429 -1093 493 -1002 493 -892 
C 493 -782 416 -685 288 -685 
C 147 -685 77 -782 77 -899 
C 77 -1158 339 -1344 627 -1344 
C 998 -1344 1229 -983 1357 -659 
L 2496 2183 
z
" id="CMR17-79" transform="scale(0.015625)"/>
       <path d="M 2362 2669 
L 3469 3771 
C 3699 3994 3942 4172 4301 4185 
L 4301 4352 
C 4173 4345 4013 4339 3885 4339 
C 3712 4339 3411 4339 3245 4352 
L 3245 4185 
C 3411 4172 3437 4057 3437 4013 
C 3437 3968 3411 3898 3386 3860 
L 1261 1739 
L 1261 3898 
C 1261 4185 1331 4185 1773 4185 
L 1773 4352 
C 1587 4339 1248 4339 1050 4339 
C 851 4339 512 4339 326 4352 
L 326 4185 
C 768 4185 838 4185 838 3898 
L 838 453 
C 838 166 768 166 326 166 
L 326 0 
C 512 12 851 12 1050 12 
C 1248 12 1587 12 1773 0 
L 1773 166 
C 1331 166 1261 166 1261 453 
L 1261 1580 
L 2080 2389 
L 3290 542 
C 3328 478 3373 395 3373 332 
C 3373 166 3194 166 3110 166 
L 3110 0 
C 3315 12 3610 12 3821 12 
C 3974 12 4237 12 4384 0 
L 4384 166 
C 4077 166 3981 204 3789 497 
L 2362 2669 
z
" id="CMR17-4b" transform="scale(0.015625)"/>
      </defs>
      <use transform="scale(0.996264)" xlink:href="#CMR17-53"/>
      <use transform="translate(50.89537 0)scale(0.996264)" xlink:href="#CMR17-69"/>
      <use transform="translate(75.766428 0)scale(0.996264)" xlink:href="#CMR17-6e"/>
      <use transform="translate(126.661798 0)scale(0.996264)" xlink:href="#CMR17-67"/>
      <use transform="translate(172.352275 0)scale(0.996264)" xlink:href="#CMR17-6c"/>
      <use transform="translate(197.223334 0)scale(0.996264)" xlink:href="#CMR17-65"/>
      <use transform="translate(267.78496 0)scale(0.996264)" xlink:href="#CMR17-46"/>
      <use transform="translate(327.768807 0)scale(0.996264)" xlink:href="#CMR17-69"/>
      <use transform="translate(352.639866 0)scale(0.996264)" xlink:href="#CMR17-64"/>
      <use transform="translate(403.535235 0)scale(0.996264)" xlink:href="#CMR17-65"/>
      <use transform="translate(444.020896 0)scale(0.996264)" xlink:href="#CMR17-6c"/>
      <use transform="translate(468.891954 0)scale(0.996264)" xlink:href="#CMR17-69"/>
      <use transform="translate(493.763013 0)scale(0.996264)" xlink:href="#CMR17-74"/>
      <use transform="translate(526.441327 0)scale(0.996264)" xlink:href="#CMR17-79"/>
      <use transform="translate(604.810209 0)scale(0.996264)" xlink:href="#CMR17-4b"/>
      <use transform="translate(676.484986 0)scale(0.996264)" xlink:href="#CMR17-72"/>
      <use transform="translate(711.765754 0)scale(0.996264)" xlink:href="#CMR17-69"/>
      <use transform="translate(736.636812 0)scale(0.996264)" xlink:href="#CMR17-67"/>
      <use transform="translate(782.32729 0)scale(0.996264)" xlink:href="#CMR17-69"/>
      <use transform="translate(807.198348 0)scale(0.996264)" xlink:href="#CMR17-6e"/>
      <use transform="translate(858.093718 0)scale(0.996264)" xlink:href="#CMR17-67"/>
     </g>
    </g>
    <g id="line2d_27">
     <path d="M 223.381244 80.495627 
L 257.941244 80.495627 
" style="fill:none;stroke:#1f77b4;stroke-dasharray:2.775,1.2;stroke-dashoffset:0;stroke-width:0.75;"/>
    </g>
    <g id="line2d_28">
     <g>
      <use style="fill:#1f77b4;stroke:#1f77b4;stroke-linejoin:miter;" x="240.661244" xlink:href="#m850419b48f" y="80.495627"/>
     </g>
    </g>
    <g id="text_25">
     <!-- Multi Fidelity Kriging -->
     <g transform="translate(271.765244 86.543627)scale(0.1728 -0.1728)">
      <use transform="scale(0.996264)" xlink:href="#CMR17-4d"/>
      <use transform="translate(84.686941 0)scale(0.996264)" xlink:href="#CMR17-75"/>
      <use transform="translate(135.58231 0)scale(0.996264)" xlink:href="#CMR17-6c"/>
      <use transform="translate(160.453369 0)scale(0.996264)" xlink:href="#CMR17-74"/>
      <use transform="translate(195.734137 0)scale(0.996264)" xlink:href="#CMR17-69"/>
      <use transform="translate(250.681161 0)scale(0.996264)" xlink:href="#CMR17-46"/>
      <use transform="translate(310.665008 0)scale(0.996264)" xlink:href="#CMR17-69"/>
      <use transform="translate(335.536067 0)scale(0.996264)" xlink:href="#CMR17-64"/>
      <use transform="translate(386.431436 0)scale(0.996264)" xlink:href="#CMR17-65"/>
      <use transform="translate(426.917097 0)scale(0.996264)" xlink:href="#CMR17-6c"/>
      <use transform="translate(451.788155 0)scale(0.996264)" xlink:href="#CMR17-69"/>
      <use transform="translate(476.659214 0)scale(0.996264)" xlink:href="#CMR17-74"/>
      <use transform="translate(509.337528 0)scale(0.996264)" xlink:href="#CMR17-79"/>
      <use transform="translate(587.70641 0)scale(0.996264)" xlink:href="#CMR17-4b"/>
      <use transform="translate(659.381187 0)scale(0.996264)" xlink:href="#CMR17-72"/>
      <use transform="translate(694.661955 0)scale(0.996264)" xlink:href="#CMR17-69"/>
      <use transform="translate(719.533013 0)scale(0.996264)" xlink:href="#CMR17-67"/>
      <use transform="translate(765.223491 0)scale(0.996264)" xlink:href="#CMR17-69"/>
      <use transform="translate(790.094549 0)scale(0.996264)" xlink:href="#CMR17-6e"/>
      <use transform="translate(840.989919 0)scale(0.996264)" xlink:href="#CMR17-67"/>
     </g>
    </g>
    <g id="line2d_29">
     <path d="M 223.381244 104.580169 
L 257.941244 104.580169 
" style="fill:none;stroke:#f08080;stroke-dasharray:2.775,1.2;stroke-dashoffset:0;stroke-width:0.75;"/>
    </g>
    <g id="line2d_30">
     <g>
      <use style="fill:#f08080;stroke:#f08080;stroke-linejoin:miter;" x="240.661244" xlink:href="#m4cb50f9a2c" y="104.580169"/>
     </g>
    </g>
    <g id="text_26">
     <!-- Single Fidelity Neural Network -->
     <g transform="translate(271.765244 110.628169)scale(0.1728 -0.1728)">
      <defs>
       <path d="M 3725 2186 
C 3853 2566 4109 2579 4205 2585 
L 4205 2752 
C 4077 2745 3949 2739 3821 2739 
C 3699 2739 3424 2739 3315 2752 
L 3315 2585 
C 3514 2572 3622 2456 3622 2296 
C 3622 2251 3610 2193 3597 2148 
L 2995 398 
L 2342 2296 
C 2330 2341 2310 2392 2310 2418 
C 2310 2585 2528 2585 2630 2585 
L 2630 2752 
C 2483 2739 2214 2739 2061 2739 
C 1901 2739 1734 2739 1587 2752 
L 1587 2585 
C 1939 2585 1939 2572 2074 2167 
L 1485 443 
L 851 2302 
C 819 2386 819 2399 819 2418 
C 819 2585 1037 2585 1139 2585 
L 1139 2752 
C 986 2739 717 2739 557 2739 
C 416 2739 198 2739 64 2752 
L 64 2585 
C 346 2585 416 2566 486 2353 
L 1274 38 
C 1299 -45 1318 -64 1370 -64 
C 1414 -64 1440 -52 1472 44 
L 2131 1987 
L 2797 44 
C 2829 -52 2854 -64 2899 -64 
C 2950 -64 2970 -45 2995 38 
L 3725 2186 
z
" id="CMR17-77" transform="scale(0.015625)"/>
      </defs>
      <use transform="scale(0.996264)" xlink:href="#CMR17-53"/>
      <use transform="translate(50.89537 0)scale(0.996264)" xlink:href="#CMR17-69"/>
      <use transform="translate(75.766428 0)scale(0.996264)" xlink:href="#CMR17-6e"/>
      <use transform="translate(126.661798 0)scale(0.996264)" xlink:href="#CMR17-67"/>
      <use transform="translate(172.352275 0)scale(0.996264)" xlink:href="#CMR17-6c"/>
      <use transform="translate(197.223334 0)scale(0.996264)" xlink:href="#CMR17-65"/>
      <use transform="translate(267.78496 0)scale(0.996264)" xlink:href="#CMR17-46"/>
      <use transform="translate(327.768807 0)scale(0.996264)" xlink:href="#CMR17-69"/>
      <use transform="translate(352.639866 0)scale(0.996264)" xlink:href="#CMR17-64"/>
      <use transform="translate(403.535235 0)scale(0.996264)" xlink:href="#CMR17-65"/>
      <use transform="translate(444.020896 0)scale(0.996264)" xlink:href="#CMR17-6c"/>
      <use transform="translate(468.891954 0)scale(0.996264)" xlink:href="#CMR17-69"/>
      <use transform="translate(493.763013 0)scale(0.996264)" xlink:href="#CMR17-74"/>
      <use transform="translate(526.441327 0)scale(0.996264)" xlink:href="#CMR17-79"/>
      <use transform="translate(604.810209 0)scale(0.996264)" xlink:href="#CMR17-4e"/>
      <use transform="translate(673.882639 0)scale(0.996264)" xlink:href="#CMR17-65"/>
      <use transform="translate(714.368299 0)scale(0.996264)" xlink:href="#CMR17-75"/>
      <use transform="translate(765.263669 0)scale(0.996264)" xlink:href="#CMR17-72"/>
      <use transform="translate(800.544437 0)scale(0.996264)" xlink:href="#CMR17-61"/>
      <use transform="translate(846.234914 0)scale(0.996264)" xlink:href="#CMR17-6c"/>
      <use transform="translate(901.181939 0)scale(0.996264)" xlink:href="#CMR17-4e"/>
      <use transform="translate(970.254368 0)scale(0.996264)" xlink:href="#CMR17-65"/>
      <use transform="translate(1010.740029 0)scale(0.996264)" xlink:href="#CMR17-74"/>
      <use transform="translate(1043.418343 0)scale(0.996264)" xlink:href="#CMR17-77"/>
      <use transform="translate(1107.325769 0)scale(0.996264)" xlink:href="#CMR17-6f"/>
      <use transform="translate(1153.016246 0)scale(0.996264)" xlink:href="#CMR17-72"/>
      <use transform="translate(1188.297014 0)scale(0.996264)" xlink:href="#CMR17-6b"/>
     </g>
    </g>
    <g id="line2d_31">
     <path d="M 223.381244 128.664711 
L 257.941244 128.664711 
" style="fill:none;stroke:#b22222;stroke-dasharray:2.775,1.2;stroke-dashoffset:0;stroke-width:0.75;"/>
    </g>
    <g id="line2d_32">
     <g>
      <use style="fill:#b22222;stroke:#b22222;stroke-linejoin:bevel;" x="240.661244" xlink:href="#m4bd586516b" y="128.664711"/>
     </g>
    </g>
    <g id="text_27">
     <!-- Multi Fidelity Neural Network -->
     <g transform="translate(271.765244 134.712711)scale(0.1728 -0.1728)">
      <use transform="scale(0.996264)" xlink:href="#CMR17-4d"/>
      <use transform="translate(84.686941 0)scale(0.996264)" xlink:href="#CMR17-75"/>
      <use transform="translate(135.58231 0)scale(0.996264)" xlink:href="#CMR17-6c"/>
      <use transform="translate(160.453369 0)scale(0.996264)" xlink:href="#CMR17-74"/>
      <use transform="translate(195.734137 0)scale(0.996264)" xlink:href="#CMR17-69"/>
      <use transform="translate(250.681161 0)scale(0.996264)" xlink:href="#CMR17-46"/>
      <use transform="translate(310.665008 0)scale(0.996264)" xlink:href="#CMR17-69"/>
      <use transform="translate(335.536067 0)scale(0.996264)" xlink:href="#CMR17-64"/>
      <use transform="translate(386.431436 0)scale(0.996264)" xlink:href="#CMR17-65"/>
      <use transform="translate(426.917097 0)scale(0.996264)" xlink:href="#CMR17-6c"/>
      <use transform="translate(451.788155 0)scale(0.996264)" xlink:href="#CMR17-69"/>
      <use transform="translate(476.659214 0)scale(0.996264)" xlink:href="#CMR17-74"/>
      <use transform="translate(509.337528 0)scale(0.996264)" xlink:href="#CMR17-79"/>
      <use transform="translate(587.70641 0)scale(0.996264)" xlink:href="#CMR17-4e"/>
      <use transform="translate(656.77884 0)scale(0.996264)" xlink:href="#CMR17-65"/>
      <use transform="translate(697.2645 0)scale(0.996264)" xlink:href="#CMR17-75"/>
      <use transform="translate(748.15987 0)scale(0.996264)" xlink:href="#CMR17-72"/>
      <use transform="translate(783.440638 0)scale(0.996264)" xlink:href="#CMR17-61"/>
      <use transform="translate(829.131115 0)scale(0.996264)" xlink:href="#CMR17-6c"/>
      <use transform="translate(884.07814 0)scale(0.996264)" xlink:href="#CMR17-4e"/>
      <use transform="translate(953.150569 0)scale(0.996264)" xlink:href="#CMR17-65"/>
      <use transform="translate(993.63623 0)scale(0.996264)" xlink:href="#CMR17-74"/>
      <use transform="translate(1026.314544 0)scale(0.996264)" xlink:href="#CMR17-77"/>
      <use transform="translate(1090.22197 0)scale(0.996264)" xlink:href="#CMR17-6f"/>
      <use transform="translate(1135.912447 0)scale(0.996264)" xlink:href="#CMR17-72"/>
      <use transform="translate(1171.193215 0)scale(0.996264)" xlink:href="#CMR17-6b"/>
     </g>
    </g>
   </g>
  </g>
 </g>
 <defs>
  <clipPath id="pe33ff59f5e">
   <rect height="285.147475" width="446.949737" x="54.050023" y="34.811085"/>
  </clipPath>
 </defs>
</svg>
