<?xml version="1.0" encoding="utf-8" standalone="no"?>
<!DOCTYPE svg PUBLIC "-//W3C//DTD SVG 1.1//EN"
  "http://www.w3.org/Graphics/SVG/1.1/DTD/svg11.dtd">
<svg height="345.6pt" version="1.1" viewBox="0 0 576 345.6" width="576pt" xmlns="http://www.w3.org/2000/svg" xmlns:xlink="http://www.w3.org/1999/xlink">
 <metadata>
  <rdf:RDF xmlns:cc="http://creativecommons.org/ns#" xmlns:dc="http://purl.org/dc/elements/1.1/" xmlns:rdf="http://www.w3.org/1999/02/22-rdf-syntax-ns#">
   <cc:Work>
    <dc:type rdf:resource="http://purl.org/dc/dcmitype/StillImage"/>
    <dc:date>2022-10-11T16:48:15.772935</dc:date>
    <dc:format>image/svg+xml</dc:format>
    <dc:creator>
     <cc:Agent>
      <dc:title>Matplotlib v3.4.3, https://matplotlib.org/</dc:title>
     </cc:Agent>
    </dc:creator>
   </cc:Work>
  </rdf:RDF>
 </metadata>
 <defs>
  <style type="text/css">*{stroke-linecap:butt;stroke-linejoin:round;}</style>
 </defs>
 <g id="figure_1">
  <g id="patch_1">
   <path d="M 0 345.6 
L 576 345.6 
L 576 0 
L 0 0 
z
" style="fill:#ffffff;"/>
  </g>
  <g id="axes_1">
   <g id="patch_2">
    <path d="M 111.197821 296.175503 
L 556.334996 296.175503 
L 556.334996 3.00024 
L 111.197821 3.00024 
z
" style="fill:#ffffff;"/>
   </g>
   <g id="patch_3">
    <path clip-path="url(#pe6d0928f36)" d="M -43957.382491 282.849354 
L 442.825016 282.849354 
L 442.825016 226.739256 
L -43957.382491 226.739256 
z
" style="fill:#87ceeb;"/>
   </g>
   <g id="patch_4">
    <path clip-path="url(#pe6d0928f36)" d="M -43957.382491 212.711732 
L 485.113048 212.711732 
L 485.113048 156.601634 
L -43957.382491 156.601634 
z
" style="fill:#1f77b4;"/>
   </g>
   <g id="patch_5">
    <path clip-path="url(#pe6d0928f36)" d="M -43957.382491 142.574109 
L 376.05444 142.574109 
L 376.05444 86.464011 
L -43957.382491 86.464011 
z
" style="fill:#f08080;"/>
   </g>
   <g id="patch_6">
    <path clip-path="url(#pe6d0928f36)" d="M -43957.382491 72.436486 
L 418.342472 72.436486 
L 418.342472 16.326388 
L -43957.382491 16.326388 
z
" style="fill:#b22222;"/>
   </g>
   <g id="matplotlib.axis_1">
    <g id="xtick_1">
     <g id="line2d_1">
      <defs>
       <path d="M 0 0 
L 0 3.5 
" id="mb9754160b4" style="stroke:#000000;stroke-width:0.8;"/>
      </defs>
      <g>
       <use style="stroke:#000000;stroke-width:0.8;" x="111.197821" xlink:href="#mb9754160b4" y="296.175503"/>
      </g>
     </g>
     <g id="text_1">
      <!-- $\mathdefault{0.990}$ -->
      <g transform="translate(94.533057 313.553227)scale(0.15 -0.15)">
       <defs>
        <path d="M 2688 2038 
C 2688 2430 2682 3099 2413 3613 
C 2176 4063 1798 4224 1466 4224 
C 1158 4224 768 4082 525 3620 
C 269 3137 243 2539 243 2038 
C 243 1671 250 1112 448 623 
C 723 -39 1216 -128 1466 -128 
C 1760 -128 2208 -7 2470 604 
C 2662 1048 2688 1568 2688 2038 
z
M 1466 -26 
C 1056 -26 813 328 723 816 
C 653 1196 653 1749 653 2109 
C 653 2604 653 3015 736 3407 
C 858 3954 1216 4121 1466 4121 
C 1728 4121 2067 3947 2189 3420 
C 2272 3054 2278 2623 2278 2109 
C 2278 1691 2278 1176 2202 797 
C 2067 96 1690 -26 1466 -26 
z
" id="CMR17-30" transform="scale(0.015625)"/>
        <path d="M 1178 307 
C 1178 492 1024 620 870 620 
C 685 620 557 467 557 313 
C 557 128 710 0 864 0 
C 1050 0 1178 153 1178 307 
z
" id="CMMI12-3a" transform="scale(0.015625)"/>
        <path d="M 2253 1871 
C 2253 448 1670 25 1190 25 
C 1043 25 685 43 538 281 
C 704 256 826 345 826 505 
C 826 678 685 736 595 736 
C 538 736 365 710 365 492 
C 365 68 742 -128 1203 -128 
C 1939 -128 2688 665 2688 2090 
C 2688 3857 1971 4224 1485 4224 
C 851 4224 243 3664 243 2800 
C 243 2000 762 1408 1414 1408 
C 1952 1408 2189 1910 2253 2122 
L 2253 1871 
z
M 1427 1510 
C 1254 1510 1011 1542 813 1929 
C 678 2181 678 2477 678 2793 
C 678 3174 678 3438 858 3722 
C 947 3857 1114 4076 1485 4076 
C 2240 4076 2240 2909 2240 2651 
C 2240 2193 2035 1510 1427 1510 
z
" id="CMR17-39" transform="scale(0.015625)"/>
       </defs>
       <use transform="scale(0.996264)" xlink:href="#CMR17-30"/>
       <use transform="translate(45.690477 0)scale(0.996264)" xlink:href="#CMMI12-3a"/>
       <use transform="translate(72.787654 0)scale(0.996264)" xlink:href="#CMR17-39"/>
       <use transform="translate(118.478131 0)scale(0.996264)" xlink:href="#CMR17-39"/>
       <use transform="translate(164.168608 0)scale(0.996264)" xlink:href="#CMR17-30"/>
      </g>
     </g>
    </g>
    <g id="xtick_2">
     <g id="line2d_2">
      <g>
       <use style="stroke:#000000;stroke-width:0.8;" x="200.225256" xlink:href="#mb9754160b4" y="296.175503"/>
      </g>
     </g>
     <g id="text_2">
      <!-- $\mathdefault{0.992}$ -->
      <g transform="translate(183.560492 313.553227)scale(0.15 -0.15)">
       <defs>
        <path d="M 2669 990 
L 2554 990 
C 2490 537 2438 460 2413 422 
C 2381 371 1920 371 1830 371 
L 602 371 
C 832 620 1280 1073 1824 1596 
C 2214 1966 2669 2400 2669 3033 
C 2669 3788 2067 4224 1395 4224 
C 691 4224 262 3603 262 3027 
C 262 2777 448 2745 525 2745 
C 589 2745 781 2783 781 3007 
C 781 3206 614 3264 525 3264 
C 486 3264 448 3257 422 3244 
C 544 3788 915 4057 1306 4057 
C 1862 4057 2227 3616 2227 3033 
C 2227 2477 1901 1998 1536 1583 
L 262 147 
L 262 0 
L 2515 0 
L 2669 990 
z
" id="CMR17-32" transform="scale(0.015625)"/>
       </defs>
       <use transform="scale(0.996264)" xlink:href="#CMR17-30"/>
       <use transform="translate(45.690477 0)scale(0.996264)" xlink:href="#CMMI12-3a"/>
       <use transform="translate(72.787654 0)scale(0.996264)" xlink:href="#CMR17-39"/>
       <use transform="translate(118.478131 0)scale(0.996264)" xlink:href="#CMR17-39"/>
       <use transform="translate(164.168608 0)scale(0.996264)" xlink:href="#CMR17-32"/>
      </g>
     </g>
    </g>
    <g id="xtick_3">
     <g id="line2d_3">
      <g>
       <use style="stroke:#000000;stroke-width:0.8;" x="289.252691" xlink:href="#mb9754160b4" y="296.175503"/>
      </g>
     </g>
     <g id="text_3">
      <!-- $\mathdefault{0.994}$ -->
      <g transform="translate(272.587927 313.553227)scale(0.15 -0.15)">
       <defs>
        <path d="M 2150 4147 
C 2150 4281 2144 4288 2029 4288 
L 128 1254 
L 128 1088 
L 1779 1088 
L 1779 460 
C 1779 230 1766 166 1318 166 
L 1197 166 
L 1197 0 
C 1402 12 1747 12 1965 12 
C 2182 12 2528 12 2733 0 
L 2733 166 
L 2611 166 
C 2163 166 2150 230 2150 460 
L 2150 1088 
L 2803 1088 
L 2803 1254 
L 2150 1254 
L 2150 4147 
z
M 1798 3723 
L 1798 1254 
L 256 1254 
L 1798 3723 
z
" id="CMR17-34" transform="scale(0.015625)"/>
       </defs>
       <use transform="scale(0.996264)" xlink:href="#CMR17-30"/>
       <use transform="translate(45.690477 0)scale(0.996264)" xlink:href="#CMMI12-3a"/>
       <use transform="translate(72.787654 0)scale(0.996264)" xlink:href="#CMR17-39"/>
       <use transform="translate(118.478131 0)scale(0.996264)" xlink:href="#CMR17-39"/>
       <use transform="translate(164.168608 0)scale(0.996264)" xlink:href="#CMR17-34"/>
      </g>
     </g>
    </g>
    <g id="xtick_4">
     <g id="line2d_4">
      <g>
       <use style="stroke:#000000;stroke-width:0.8;" x="378.280126" xlink:href="#mb9754160b4" y="296.175503"/>
      </g>
     </g>
     <g id="text_4">
      <!-- $\mathdefault{0.996}$ -->
      <g transform="translate(361.615362 313.553227)scale(0.15 -0.15)">
       <defs>
        <path d="M 678 2198 
C 678 3712 1395 4076 1811 4076 
C 1946 4076 2272 4049 2400 3782 
C 2298 3782 2106 3782 2106 3558 
C 2106 3385 2246 3328 2336 3328 
C 2394 3328 2566 3353 2566 3571 
C 2566 3987 2246 4224 1805 4224 
C 1043 4224 243 3411 243 2011 
C 243 257 966 -128 1478 -128 
C 2099 -128 2688 431 2688 1295 
C 2688 2101 2170 2688 1517 2688 
C 1126 2688 838 2430 678 1979 
L 678 2198 
z
M 1478 25 
C 691 25 691 1212 691 1450 
C 691 1914 909 2585 1504 2585 
C 1613 2585 1926 2585 2138 2140 
C 2253 1889 2253 1624 2253 1302 
C 2253 954 2253 696 2118 438 
C 1978 173 1773 25 1478 25 
z
" id="CMR17-36" transform="scale(0.015625)"/>
       </defs>
       <use transform="scale(0.996264)" xlink:href="#CMR17-30"/>
       <use transform="translate(45.690477 0)scale(0.996264)" xlink:href="#CMMI12-3a"/>
       <use transform="translate(72.787654 0)scale(0.996264)" xlink:href="#CMR17-39"/>
       <use transform="translate(118.478131 0)scale(0.996264)" xlink:href="#CMR17-39"/>
       <use transform="translate(164.168608 0)scale(0.996264)" xlink:href="#CMR17-36"/>
      </g>
     </g>
    </g>
    <g id="xtick_5">
     <g id="line2d_5">
      <g>
       <use style="stroke:#000000;stroke-width:0.8;" x="467.307561" xlink:href="#mb9754160b4" y="296.175503"/>
      </g>
     </g>
     <g id="text_5">
      <!-- $\mathdefault{0.998}$ -->
      <g transform="translate(450.642797 313.553227)scale(0.15 -0.15)">
       <defs>
        <path d="M 1741 2289 
C 2144 2494 2554 2803 2554 3298 
C 2554 3884 1990 4224 1472 4224 
C 890 4224 378 3800 378 3215 
C 378 3054 416 2777 666 2533 
C 730 2469 998 2276 1171 2154 
C 883 2006 211 1652 211 945 
C 211 282 838 -128 1459 -128 
C 2144 -128 2720 366 2720 1022 
C 2720 1607 2330 1877 2074 2051 
L 1741 2289 
z
M 902 2855 
C 851 2887 595 3086 595 3388 
C 595 3781 998 4076 1459 4076 
C 1965 4076 2336 3716 2336 3298 
C 2336 2700 1670 2359 1638 2359 
C 1632 2359 1626 2359 1574 2398 
L 902 2855 
z
M 2080 1536 
C 2176 1466 2483 1253 2483 861 
C 2483 385 2010 25 1472 25 
C 890 25 448 443 448 951 
C 448 1459 838 1884 1280 2083 
L 2080 1536 
z
" id="CMR17-38" transform="scale(0.015625)"/>
       </defs>
       <use transform="scale(0.996264)" xlink:href="#CMR17-30"/>
       <use transform="translate(45.690477 0)scale(0.996264)" xlink:href="#CMMI12-3a"/>
       <use transform="translate(72.787654 0)scale(0.996264)" xlink:href="#CMR17-39"/>
       <use transform="translate(118.478131 0)scale(0.996264)" xlink:href="#CMR17-39"/>
       <use transform="translate(164.168608 0)scale(0.996264)" xlink:href="#CMR17-38"/>
      </g>
     </g>
    </g>
    <g id="xtick_6">
     <g id="line2d_6">
      <g>
       <use style="stroke:#000000;stroke-width:0.8;" x="556.334996" xlink:href="#mb9754160b4" y="296.175503"/>
      </g>
     </g>
     <g id="text_6">
      <!-- $\mathdefault{1.000}$ -->
      <g transform="translate(539.670232 313.553227)scale(0.15 -0.15)">
       <defs>
        <path d="M 1702 4083 
C 1702 4217 1696 4224 1606 4224 
C 1357 3927 979 3833 621 3820 
C 602 3820 570 3820 563 3808 
C 557 3795 557 3782 557 3648 
C 755 3648 1088 3686 1344 3839 
L 1344 467 
C 1344 243 1331 166 781 166 
L 589 166 
L 589 0 
C 896 6 1216 12 1523 12 
C 1830 12 2150 6 2458 0 
L 2458 166 
L 2266 166 
C 1715 166 1702 236 1702 467 
L 1702 4083 
z
" id="CMR17-31" transform="scale(0.015625)"/>
       </defs>
       <use transform="scale(0.996264)" xlink:href="#CMR17-31"/>
       <use transform="translate(45.690477 0)scale(0.996264)" xlink:href="#CMMI12-3a"/>
       <use transform="translate(72.787654 0)scale(0.996264)" xlink:href="#CMR17-30"/>
       <use transform="translate(118.478131 0)scale(0.996264)" xlink:href="#CMR17-30"/>
       <use transform="translate(164.168608 0)scale(0.996264)" xlink:href="#CMR17-30"/>
      </g>
     </g>
    </g>
    <g id="text_7">
     <!-- $R^2$ -->
     <g transform="translate(320.384652 337.755226)scale(0.25 -0.25)">
      <defs>
       <path d="M 2355 3917 
C 2413 4153 2438 4166 2688 4166 
L 3149 4166 
C 3699 4166 4109 4000 4109 3503 
C 4109 3177 3942 2240 2656 2240 
L 1933 2240 
L 2355 3917 
z
M 3245 2163 
C 4038 2335 4659 2846 4659 3394 
C 4659 3892 4154 4352 3264 4352 
L 1530 4352 
C 1402 4352 1344 4352 1344 4230 
C 1344 4166 1389 4166 1510 4166 
C 1894 4166 1894 4115 1894 4045 
C 1894 4032 1894 3994 1869 3898 
L 1005 475 
C 947 253 934 190 493 190 
C 346 190 301 190 301 69 
C 301 6 371 6 390 6 
C 506 6 640 19 762 19 
L 1517 19 
C 1632 19 1766 6 1882 6 
C 1933 6 2003 6 2003 126 
C 2003 190 1946 190 1850 190 
C 1459 190 1459 241 1459 304 
C 1459 310 1459 355 1472 405 
L 1901 2112 
L 2669 2112 
C 3277 2112 3392 1731 3392 1522 
C 3392 1426 3328 1179 3283 1014 
C 3213 723 3194 653 3194 532 
C 3194 82 3565 -128 3994 -128 
C 4512 -128 4736 501 4736 589 
C 4736 634 4704 653 4666 653 
C 4614 653 4602 615 4589 564 
C 4435 114 4173 0 4013 0 
C 3853 0 3750 69 3750 355 
C 3750 507 3827 1084 3834 1116 
C 3866 1350 3866 1376 3866 1426 
C 3866 1889 3488 2086 3245 2163 
z
" id="CMMI12-52" transform="scale(0.015625)"/>
      </defs>
      <use transform="scale(0.996264)" xlink:href="#CMMI12-52"/>
      <use transform="translate(75.070962 36.153639)scale(0.697382)" xlink:href="#CMR17-32"/>
     </g>
    </g>
   </g>
   <g id="matplotlib.axis_2">
    <g id="ytick_1">
     <g id="line2d_7">
      <defs>
       <path d="M 0 0 
L -3.5 0 
" id="m2d4c981831" style="stroke:#000000;stroke-width:0.8;"/>
      </defs>
      <g>
       <use style="stroke:#000000;stroke-width:0.8;" x="111.197821" xlink:href="#m2d4c981831" y="254.794305"/>
      </g>
     </g>
     <g id="text_8">
      <!-- Single Fidelity -->
      <g transform="translate(11.731308 253.341433)scale(0.15 -0.15)">
       <defs>
        <path d="M 2803 4351 
C 2803 4467 2797 4473 2758 4473 
C 2720 4473 2707 4447 2682 4390 
L 2490 3965 
C 2246 4320 1875 4480 1472 4480 
C 819 4480 294 3958 294 3301 
C 294 3101 339 2817 557 2546 
C 794 2250 1018 2198 1530 2063 
C 1722 2011 2042 1927 2106 1901 
C 2470 1747 2662 1360 2662 999 
C 2662 534 2336 38 1779 38 
C 1094 38 454 425 410 1328 
C 403 1431 397 1437 352 1437 
C 301 1437 294 1431 294 1302 
L 294 0 
C 294 -116 301 -122 339 -122 
C 384 -122 397 -90 486 109 
C 493 128 493 141 614 386 
C 934 -39 1472 -128 1779 -128 
C 2477 -128 2970 457 2970 1141 
C 2970 1476 2848 1734 2778 1850 
C 2509 2263 2221 2340 1914 2417 
C 1869 2437 1856 2437 1498 2527 
C 1152 2617 1005 2662 845 2836 
C 666 3036 602 3243 602 3449 
C 602 3868 934 4326 1478 4326 
C 2157 4326 2579 3842 2675 3036 
C 2694 2920 2701 2914 2746 2914 
C 2803 2914 2803 2933 2803 3043 
L 2803 4351 
z
" id="CMR17-53" transform="scale(0.015625)"/>
        <path d="M 992 3961 
C 992 4102 877 4224 730 4224 
C 589 4224 467 4108 467 3961 
C 467 3820 582 3699 730 3699 
C 870 3699 992 3814 992 3961 
z
M 243 2745 
L 243 2579 
C 602 2579 653 2540 653 2231 
L 653 443 
C 653 198 627 166 218 166 
L 218 0 
C 371 12 646 12 806 12 
C 960 12 1222 12 1370 0 
L 1370 166 
C 992 166 979 205 979 436 
L 979 2816 
L 243 2745 
z
" id="CMR17-69" transform="scale(0.015625)"/>
        <path d="M 2656 1954 
C 2656 2282 2592 2816 1837 2816 
C 1331 2816 1069 2424 973 2166 
L 966 2166 
L 966 2816 
L 211 2745 
L 211 2578 
C 589 2578 646 2540 646 2231 
L 646 443 
C 646 198 621 166 211 166 
L 211 0 
C 365 12 646 12 813 12 
C 979 12 1267 12 1421 0 
L 1421 166 
C 1011 166 986 192 986 443 
L 986 1678 
C 986 2269 1344 2713 1792 2713 
C 2266 2713 2317 2289 2317 1980 
L 2317 443 
C 2317 198 2291 166 1882 166 
L 1882 0 
C 2035 12 2317 12 2483 12 
C 2650 12 2938 12 3091 0 
L 3091 166 
C 2682 166 2656 192 2656 443 
L 2656 1954 
z
" id="CMR17-6e" transform="scale(0.015625)"/>
        <path d="M 710 1165 
C 832 1068 1043 960 1299 960 
C 1805 960 2240 1359 2240 1895 
C 2240 2063 2189 2321 1997 2521 
C 2176 2713 2438 2777 2586 2777 
C 2611 2777 2650 2777 2682 2758 
C 2656 2751 2598 2726 2598 2623 
C 2598 2540 2656 2483 2739 2483 
C 2835 2483 2886 2547 2886 2630 
C 2886 2751 2790 2880 2586 2880 
C 2330 2880 2106 2758 1926 2591 
C 1734 2764 1504 2828 1299 2828 
C 794 2828 358 2431 358 1895 
C 358 1527 570 1294 634 1230 
C 442 1004 442 742 442 710 
C 442 544 506 300 723 166 
C 390 82 128 -184 128 -517 
C 128 -996 736 -1344 1466 -1344 
C 2170 -1344 2803 -1009 2803 -510 
C 2803 384 1856 384 1363 384 
C 1216 384 954 384 922 390 
C 723 422 589 601 589 825 
C 589 883 589 1024 710 1165 
z
M 1299 1068 
C 736 1068 736 1766 736 1895 
C 736 2024 736 2719 1299 2719 
C 1862 2719 1862 2024 1862 1895 
C 1862 1766 1862 1068 1299 1068 
z
M 1466 -1236 
C 826 -1236 384 -883 384 -517 
C 384 -311 493 -118 634 -11 
C 794 102 858 102 1293 102 
C 1818 102 2547 102 2547 -517 
C 2547 -883 2106 -1236 1466 -1236 
z
" id="CMR17-67" transform="scale(0.015625)"/>
        <path d="M 979 4416 
L 218 4345 
L 218 4179 
C 595 4179 653 4141 653 3835 
L 653 439 
C 653 198 627 166 218 166 
L 218 0 
C 371 12 653 12 813 12 
C 979 12 1261 12 1414 0 
L 1414 166 
C 1005 166 979 191 979 439 
L 979 4416 
z
" id="CMR17-6c" transform="scale(0.015625)"/>
        <path d="M 2438 1503 
C 2464 1529 2464 1542 2464 1606 
C 2464 2251 2118 2816 1389 2816 
C 710 2816 173 2175 173 1394 
C 173 554 781 -64 1459 -64 
C 2176 -64 2458 619 2458 755 
C 2458 800 2419 800 2406 800 
C 2362 800 2355 787 2330 709 
C 2189 270 1837 51 1504 51 
C 1229 51 954 206 781 490 
C 582 819 582 1200 582 1503 
L 2438 1503 
z
M 589 1600 
C 634 2511 1126 2713 1382 2713 
C 1818 2713 2112 2308 2118 1600 
L 589 1600 
z
" id="CMR17-65" transform="scale(0.015625)"/>
        <path d="M 3482 4339 
L 326 4339 
L 326 4172 
C 768 4172 838 4172 838 3883 
L 838 450 
C 838 166 768 166 326 166 
L 326 0 
C 512 12 870 12 1069 12 
C 1331 12 1638 12 1901 0 
L 1901 166 
L 1760 166 
C 1274 166 1261 229 1261 456 
L 1261 2073 
L 1837 2073 
C 2432 2073 2490 1865 2490 1334 
L 2605 1334 
L 2605 2991 
L 2490 2991 
C 2490 2451 2432 2240 1837 2240 
L 1261 2240 
L 1261 3922 
C 1261 4140 1274 4172 1530 4172 
L 2355 4172 
C 3322 4172 3430 3774 3520 2920 
L 3635 2920 
L 3482 4339 
z
" id="CMR17-46" transform="scale(0.015625)"/>
        <path d="M 1869 4345 
L 1869 4179 
C 2246 4179 2304 4141 2304 3843 
L 2304 2371 
C 2278 2403 2016 2816 1498 2816 
C 845 2816 211 2228 211 1376 
C 211 529 806 -64 1434 -64 
C 1978 -64 2259 361 2291 406 
L 2291 -64 
L 3066 -13 
L 3066 154 
C 2688 154 2630 193 2630 503 
L 2630 4416 
L 1869 4345 
z
M 2291 762 
C 2291 568 2176 393 2029 264 
C 1811 70 1594 38 1472 38 
C 1286 38 621 135 621 1369 
C 621 2636 1363 2713 1530 2713 
C 1824 2713 2061 2545 2208 2313 
C 2291 2177 2291 2157 2291 2041 
L 2291 762 
z
" id="CMR17-64" transform="scale(0.015625)"/>
        <path d="M 966 2585 
L 1862 2585 
L 1862 2752 
L 966 2752 
L 966 3968 
L 851 3968 
C 838 3292 614 2700 70 2687 
L 70 2585 
L 627 2585 
L 627 778 
C 627 655 627 -64 1370 -64 
C 1747 -64 1965 308 1965 784 
L 1965 1151 
L 1850 1151 
L 1850 790 
C 1850 347 1677 51 1408 51 
C 1222 51 966 179 966 765 
L 966 2585 
z
" id="CMR17-74" transform="scale(0.015625)"/>
        <path d="M 2496 2183 
C 2656 2579 2944 2585 3034 2585 
L 3034 2752 
C 2912 2745 2752 2739 2630 2739 
C 2496 2739 2285 2739 2157 2752 
L 2157 2585 
C 2400 2566 2406 2384 2406 2332 
C 2406 2268 2394 2235 2362 2158 
L 1664 409 
L 902 2300 
C 870 2378 870 2423 870 2430 
C 870 2572 1018 2585 1171 2585 
L 1171 2752 
C 1018 2739 742 2739 582 2739 
C 410 2739 205 2739 64 2752 
L 64 2585 
C 410 2585 448 2553 531 2345 
L 1485 -31 
C 1197 -795 1030 -1242 627 -1242 
C 557 -1242 397 -1223 282 -1106 
C 429 -1093 493 -1002 493 -892 
C 493 -782 416 -685 288 -685 
C 147 -685 77 -782 77 -899 
C 77 -1158 339 -1344 627 -1344 
C 998 -1344 1229 -983 1357 -659 
L 2496 2183 
z
" id="CMR17-79" transform="scale(0.015625)"/>
       </defs>
       <use transform="scale(0.996264)" xlink:href="#CMR17-53"/>
       <use transform="translate(50.89537 0)scale(0.996264)" xlink:href="#CMR17-69"/>
       <use transform="translate(75.766428 0)scale(0.996264)" xlink:href="#CMR17-6e"/>
       <use transform="translate(126.661798 0)scale(0.996264)" xlink:href="#CMR17-67"/>
       <use transform="translate(172.352275 0)scale(0.996264)" xlink:href="#CMR17-6c"/>
       <use transform="translate(197.223334 0)scale(0.996264)" xlink:href="#CMR17-65"/>
       <use transform="translate(267.78496 0)scale(0.996264)" xlink:href="#CMR17-46"/>
       <use transform="translate(327.768807 0)scale(0.996264)" xlink:href="#CMR17-69"/>
       <use transform="translate(352.639866 0)scale(0.996264)" xlink:href="#CMR17-64"/>
       <use transform="translate(403.535235 0)scale(0.996264)" xlink:href="#CMR17-65"/>
       <use transform="translate(444.020896 0)scale(0.996264)" xlink:href="#CMR17-6c"/>
       <use transform="translate(468.891954 0)scale(0.996264)" xlink:href="#CMR17-69"/>
       <use transform="translate(493.763013 0)scale(0.996264)" xlink:href="#CMR17-74"/>
       <use transform="translate(526.441327 0)scale(0.996264)" xlink:href="#CMR17-79"/>
      </g>
      <!--  Kriging -->
      <g transform="translate(56.241002 268.700447)scale(0.15 -0.15)">
       <defs>
        <path d="M 2362 2669 
L 3469 3771 
C 3699 3994 3942 4172 4301 4185 
L 4301 4352 
C 4173 4345 4013 4339 3885 4339 
C 3712 4339 3411 4339 3245 4352 
L 3245 4185 
C 3411 4172 3437 4057 3437 4013 
C 3437 3968 3411 3898 3386 3860 
L 1261 1739 
L 1261 3898 
C 1261 4185 1331 4185 1773 4185 
L 1773 4352 
C 1587 4339 1248 4339 1050 4339 
C 851 4339 512 4339 326 4352 
L 326 4185 
C 768 4185 838 4185 838 3898 
L 838 453 
C 838 166 768 166 326 166 
L 326 0 
C 512 12 851 12 1050 12 
C 1248 12 1587 12 1773 0 
L 1773 166 
C 1331 166 1261 166 1261 453 
L 1261 1580 
L 2080 2389 
L 3290 542 
C 3328 478 3373 395 3373 332 
C 3373 166 3194 166 3110 166 
L 3110 0 
C 3315 12 3610 12 3821 12 
C 3974 12 4237 12 4384 0 
L 4384 166 
C 4077 166 3981 204 3789 497 
L 2362 2669 
z
" id="CMR17-4b" transform="scale(0.015625)"/>
        <path d="M 960 1517 
C 960 2134 1222 2713 1702 2713 
C 1747 2713 1792 2707 1837 2687 
C 1837 2687 1696 2642 1696 2475 
C 1696 2321 1818 2257 1914 2257 
C 1990 2257 2131 2302 2131 2482 
C 2131 2687 1926 2816 1709 2816 
C 1222 2816 1011 2340 947 2115 
L 941 2115 
L 941 2816 
L 198 2745 
L 198 2578 
C 576 2578 634 2540 634 2231 
L 634 443 
C 634 198 608 166 198 166 
L 198 0 
C 352 12 646 12 813 12 
C 998 12 1325 12 1498 0 
L 1498 166 
C 1037 166 960 166 960 455 
L 960 1517 
z
" id="CMR17-72" transform="scale(0.015625)"/>
       </defs>
       <use transform="scale(0.996264)" xlink:href="#CMR17-4b"/>
       <use transform="translate(71.674777 0)scale(0.996264)" xlink:href="#CMR17-72"/>
       <use transform="translate(106.955545 0)scale(0.996264)" xlink:href="#CMR17-69"/>
       <use transform="translate(131.826604 0)scale(0.996264)" xlink:href="#CMR17-67"/>
       <use transform="translate(177.517081 0)scale(0.996264)" xlink:href="#CMR17-69"/>
       <use transform="translate(202.388139 0)scale(0.996264)" xlink:href="#CMR17-6e"/>
       <use transform="translate(253.283509 0)scale(0.996264)" xlink:href="#CMR17-67"/>
      </g>
     </g>
    </g>
    <g id="ytick_2">
     <g id="line2d_8">
      <g>
       <use style="stroke:#000000;stroke-width:0.8;" x="111.197821" xlink:href="#m2d4c981831" y="184.656683"/>
      </g>
     </g>
     <g id="text_9">
      <!-- Multi Fidelity -->
      <g transform="translate(14.581688 183.20381)scale(0.15 -0.15)">
       <defs>
        <path d="M 1338 4249 
C 1299 4345 1293 4352 1158 4352 
L 339 4352 
L 339 4185 
C 781 4185 851 4185 851 3898 
L 851 624 
C 851 465 851 166 339 166 
L 339 0 
C 486 12 755 12 915 12 
C 1075 12 1344 12 1491 0 
L 1491 166 
C 979 166 979 465 979 624 
L 979 4159 
L 986 4159 
L 2490 102 
C 2515 38 2528 0 2579 0 
C 2630 0 2643 38 2669 102 
L 4186 4191 
L 4192 4191 
L 4192 453 
C 4192 166 4122 166 3680 166 
L 3680 0 
C 3853 12 4198 12 4384 12 
C 4570 12 4922 12 5094 0 
L 5094 166 
C 4653 166 4582 166 4582 453 
L 4582 3898 
C 4582 4185 4653 4185 5094 4185 
L 5094 4352 
L 4282 4352 
C 4147 4352 4141 4345 4102 4249 
L 2720 516 
L 1338 4249 
z
" id="CMR17-4d" transform="scale(0.015625)"/>
        <path d="M 1882 2745 
L 1882 2579 
C 2259 2579 2317 2540 2317 2229 
L 2317 1053 
C 2317 510 2029 38 1555 38 
C 1030 38 986 355 986 691 
L 986 2816 
L 211 2745 
L 211 2579 
C 467 2579 640 2579 646 2320 
L 646 1079 
C 646 646 646 368 813 187 
C 896 103 1056 -64 1517 -64 
C 2061 -64 2272 400 2323 536 
L 2330 536 
L 2330 -64 
L 3091 -13 
L 3091 154 
C 2714 154 2656 193 2656 503 
L 2656 2816 
L 1882 2745 
z
" id="CMR17-75" transform="scale(0.015625)"/>
       </defs>
       <use transform="scale(0.996264)" xlink:href="#CMR17-4d"/>
       <use transform="translate(84.686941 0)scale(0.996264)" xlink:href="#CMR17-75"/>
       <use transform="translate(135.58231 0)scale(0.996264)" xlink:href="#CMR17-6c"/>
       <use transform="translate(160.453369 0)scale(0.996264)" xlink:href="#CMR17-74"/>
       <use transform="translate(195.734137 0)scale(0.996264)" xlink:href="#CMR17-69"/>
       <use transform="translate(250.681161 0)scale(0.996264)" xlink:href="#CMR17-46"/>
       <use transform="translate(310.665008 0)scale(0.996264)" xlink:href="#CMR17-69"/>
       <use transform="translate(335.536067 0)scale(0.996264)" xlink:href="#CMR17-64"/>
       <use transform="translate(386.431436 0)scale(0.996264)" xlink:href="#CMR17-65"/>
       <use transform="translate(426.917097 0)scale(0.996264)" xlink:href="#CMR17-6c"/>
       <use transform="translate(451.788155 0)scale(0.996264)" xlink:href="#CMR17-69"/>
       <use transform="translate(476.659214 0)scale(0.996264)" xlink:href="#CMR17-74"/>
       <use transform="translate(509.337528 0)scale(0.996264)" xlink:href="#CMR17-79"/>
      </g>
      <!--  Kriging -->
      <g transform="translate(56.241002 198.562825)scale(0.15 -0.15)">
       <use transform="scale(0.996264)" xlink:href="#CMR17-4b"/>
       <use transform="translate(71.674777 0)scale(0.996264)" xlink:href="#CMR17-72"/>
       <use transform="translate(106.955545 0)scale(0.996264)" xlink:href="#CMR17-69"/>
       <use transform="translate(131.826604 0)scale(0.996264)" xlink:href="#CMR17-67"/>
       <use transform="translate(177.517081 0)scale(0.996264)" xlink:href="#CMR17-69"/>
       <use transform="translate(202.388139 0)scale(0.996264)" xlink:href="#CMR17-6e"/>
       <use transform="translate(253.283509 0)scale(0.996264)" xlink:href="#CMR17-67"/>
      </g>
     </g>
    </g>
    <g id="ytick_3">
     <g id="line2d_9">
      <g>
       <use style="stroke:#000000;stroke-width:0.8;" x="111.197821" xlink:href="#m2d4c981831" y="114.51906"/>
      </g>
     </g>
     <g id="text_10">
      <!-- Single Fidelity -->
      <g transform="translate(11.731308 113.066188)scale(0.15 -0.15)">
       <use transform="scale(0.996264)" xlink:href="#CMR17-53"/>
       <use transform="translate(50.89537 0)scale(0.996264)" xlink:href="#CMR17-69"/>
       <use transform="translate(75.766428 0)scale(0.996264)" xlink:href="#CMR17-6e"/>
       <use transform="translate(126.661798 0)scale(0.996264)" xlink:href="#CMR17-67"/>
       <use transform="translate(172.352275 0)scale(0.996264)" xlink:href="#CMR17-6c"/>
       <use transform="translate(197.223334 0)scale(0.996264)" xlink:href="#CMR17-65"/>
       <use transform="translate(267.78496 0)scale(0.996264)" xlink:href="#CMR17-46"/>
       <use transform="translate(327.768807 0)scale(0.996264)" xlink:href="#CMR17-69"/>
       <use transform="translate(352.639866 0)scale(0.996264)" xlink:href="#CMR17-64"/>
       <use transform="translate(403.535235 0)scale(0.996264)" xlink:href="#CMR17-65"/>
       <use transform="translate(444.020896 0)scale(0.996264)" xlink:href="#CMR17-6c"/>
       <use transform="translate(468.891954 0)scale(0.996264)" xlink:href="#CMR17-69"/>
       <use transform="translate(493.763013 0)scale(0.996264)" xlink:href="#CMR17-74"/>
       <use transform="translate(526.441327 0)scale(0.996264)" xlink:href="#CMR17-79"/>
      </g>
      <!--  Neural Network -->
      <g transform="translate(3.00024 128.425202)scale(0.15 -0.15)">
       <defs>
        <path d="M 1312 4275 
C 1267 4345 1261 4352 1139 4352 
L 326 4352 
L 326 4185 
L 448 4185 
C 704 4185 819 4153 838 4147 
L 838 624 
C 838 465 838 166 326 166 
L 326 0 
C 474 12 742 12 902 12 
C 1062 12 1331 12 1478 0 
L 1478 166 
C 966 166 966 465 966 624 
L 966 4057 
C 1011 4019 1011 4007 1056 3943 
L 3430 76 
C 3475 0 3494 0 3526 0 
C 3590 0 3590 19 3590 140 
L 3590 3726 
C 3590 3885 3590 4185 4102 4185 
L 4102 4352 
C 3955 4339 3686 4339 3526 4339 
C 3366 4339 3098 4339 2950 4352 
L 2950 4185 
C 3462 4185 3462 3885 3462 3726 
L 3462 777 
L 1312 4275 
z
" id="CMR17-4e" transform="scale(0.015625)"/>
        <path d="M 2304 1656 
C 2304 2048 2304 2275 2035 2534 
C 1798 2751 1523 2816 1306 2816 
C 800 2816 435 2408 435 1977 
C 435 1740 627 1728 666 1728 
C 749 1728 896 1779 896 1958 
C 896 2118 774 2188 666 2188 
C 640 2188 608 2182 589 2176 
C 723 2594 1069 2713 1293 2713 
C 1613 2713 1965 2421 1965 1875 
L 1965 1632 
C 1587 1619 1133 1568 774 1373 
C 371 1147 256 822 256 576 
C 256 77 832 -64 1171 -64 
C 1523 -64 1850 135 1990 505 
C 2003 219 2182 -39 2464 -39 
C 2598 -39 2938 51 2938 563 
L 2938 926 
L 2822 926 
L 2822 557 
C 2822 161 2650 109 2566 109 
C 2304 109 2304 446 2304 732 
L 2304 1656 
z
M 1965 887 
C 1965 323 1568 38 1216 38 
C 896 38 646 278 646 576 
C 646 771 730 1114 1101 1322 
C 1408 1497 1760 1523 1965 1536 
L 1965 887 
z
" id="CMR17-61" transform="scale(0.015625)"/>
        <path d="M 3725 2186 
C 3853 2566 4109 2579 4205 2585 
L 4205 2752 
C 4077 2745 3949 2739 3821 2739 
C 3699 2739 3424 2739 3315 2752 
L 3315 2585 
C 3514 2572 3622 2456 3622 2296 
C 3622 2251 3610 2193 3597 2148 
L 2995 398 
L 2342 2296 
C 2330 2341 2310 2392 2310 2418 
C 2310 2585 2528 2585 2630 2585 
L 2630 2752 
C 2483 2739 2214 2739 2061 2739 
C 1901 2739 1734 2739 1587 2752 
L 1587 2585 
C 1939 2585 1939 2572 2074 2167 
L 1485 443 
L 851 2302 
C 819 2386 819 2399 819 2418 
C 819 2585 1037 2585 1139 2585 
L 1139 2752 
C 986 2739 717 2739 557 2739 
C 416 2739 198 2739 64 2752 
L 64 2585 
C 346 2585 416 2566 486 2353 
L 1274 38 
C 1299 -45 1318 -64 1370 -64 
C 1414 -64 1440 -52 1472 44 
L 2131 1987 
L 2797 44 
C 2829 -52 2854 -64 2899 -64 
C 2950 -64 2970 -45 2995 38 
L 3725 2186 
z
" id="CMR17-77" transform="scale(0.015625)"/>
        <path d="M 2758 1356 
C 2758 2176 2163 2816 1466 2816 
C 768 2816 173 2176 173 1356 
C 173 550 768 -64 1466 -64 
C 2163 -64 2758 550 2758 1356 
z
M 1466 51 
C 1165 51 909 230 762 480 
C 602 768 582 1126 582 1408 
C 582 1676 595 2009 762 2297 
C 890 2508 1139 2713 1466 2713 
C 1754 2713 1997 2553 2150 2329 
C 2349 2028 2349 1606 2349 1408 
C 2349 1158 2336 774 2163 467 
C 1984 172 1709 51 1466 51 
z
" id="CMR17-6f" transform="scale(0.015625)"/>
        <path d="M 1670 1679 
C 1664 1692 1632 1730 1632 1749 
C 1632 1762 2086 2175 2144 2226 
C 2509 2532 2739 2563 2906 2570 
L 2906 2735 
C 2867 2735 2854 2735 2848 2729 
L 2534 2722 
C 2355 2722 2080 2722 1907 2735 
L 1907 2570 
C 1997 2563 2061 2513 2061 2423 
C 2061 2296 1933 2175 1926 2175 
L 960 1298 
L 960 4416 
L 198 4345 
L 198 4179 
C 576 4179 634 4141 634 3835 
L 634 439 
C 634 198 608 166 198 166 
L 198 0 
C 352 12 634 12 794 12 
C 954 12 1235 12 1389 0 
L 1389 166 
C 979 166 954 191 954 439 
L 954 1139 
L 1395 1540 
L 2042 586 
C 2118 471 2182 382 2182 299 
C 2182 185 2067 166 1990 166 
L 1990 0 
C 2144 12 2419 12 2579 12 
C 2694 12 2931 6 3040 0 
L 3040 166 
C 2739 166 2669 223 2477 503 
L 1670 1679 
z
" id="CMR17-6b" transform="scale(0.015625)"/>
       </defs>
       <use transform="scale(0.996264)" xlink:href="#CMR17-4e"/>
       <use transform="translate(69.07243 0)scale(0.996264)" xlink:href="#CMR17-65"/>
       <use transform="translate(109.55809 0)scale(0.996264)" xlink:href="#CMR17-75"/>
       <use transform="translate(160.45346 0)scale(0.996264)" xlink:href="#CMR17-72"/>
       <use transform="translate(195.734228 0)scale(0.996264)" xlink:href="#CMR17-61"/>
       <use transform="translate(241.424705 0)scale(0.996264)" xlink:href="#CMR17-6c"/>
       <use transform="translate(296.37173 0)scale(0.996264)" xlink:href="#CMR17-4e"/>
       <use transform="translate(365.44416 0)scale(0.996264)" xlink:href="#CMR17-65"/>
       <use transform="translate(405.92982 0)scale(0.996264)" xlink:href="#CMR17-74"/>
       <use transform="translate(438.608134 0)scale(0.996264)" xlink:href="#CMR17-77"/>
       <use transform="translate(502.515561 0)scale(0.996264)" xlink:href="#CMR17-6f"/>
       <use transform="translate(548.206038 0)scale(0.996264)" xlink:href="#CMR17-72"/>
       <use transform="translate(583.486805 0)scale(0.996264)" xlink:href="#CMR17-6b"/>
      </g>
     </g>
    </g>
    <g id="ytick_4">
     <g id="line2d_10">
      <g>
       <use style="stroke:#000000;stroke-width:0.8;" x="111.197821" xlink:href="#m2d4c981831" y="44.381437"/>
      </g>
     </g>
     <g id="text_11">
      <!-- Multi Fidelity -->
      <g transform="translate(14.581688 42.928565)scale(0.15 -0.15)">
       <use transform="scale(0.996264)" xlink:href="#CMR17-4d"/>
       <use transform="translate(84.686941 0)scale(0.996264)" xlink:href="#CMR17-75"/>
       <use transform="translate(135.58231 0)scale(0.996264)" xlink:href="#CMR17-6c"/>
       <use transform="translate(160.453369 0)scale(0.996264)" xlink:href="#CMR17-74"/>
       <use transform="translate(195.734137 0)scale(0.996264)" xlink:href="#CMR17-69"/>
       <use transform="translate(250.681161 0)scale(0.996264)" xlink:href="#CMR17-46"/>
       <use transform="translate(310.665008 0)scale(0.996264)" xlink:href="#CMR17-69"/>
       <use transform="translate(335.536067 0)scale(0.996264)" xlink:href="#CMR17-64"/>
       <use transform="translate(386.431436 0)scale(0.996264)" xlink:href="#CMR17-65"/>
       <use transform="translate(426.917097 0)scale(0.996264)" xlink:href="#CMR17-6c"/>
       <use transform="translate(451.788155 0)scale(0.996264)" xlink:href="#CMR17-69"/>
       <use transform="translate(476.659214 0)scale(0.996264)" xlink:href="#CMR17-74"/>
       <use transform="translate(509.337528 0)scale(0.996264)" xlink:href="#CMR17-79"/>
      </g>
      <!--  Neural Network -->
      <g transform="translate(3.00024 58.287579)scale(0.15 -0.15)">
       <use transform="scale(0.996264)" xlink:href="#CMR17-4e"/>
       <use transform="translate(69.07243 0)scale(0.996264)" xlink:href="#CMR17-65"/>
       <use transform="translate(109.55809 0)scale(0.996264)" xlink:href="#CMR17-75"/>
       <use transform="translate(160.45346 0)scale(0.996264)" xlink:href="#CMR17-72"/>
       <use transform="translate(195.734228 0)scale(0.996264)" xlink:href="#CMR17-61"/>
       <use transform="translate(241.424705 0)scale(0.996264)" xlink:href="#CMR17-6c"/>
       <use transform="translate(296.37173 0)scale(0.996264)" xlink:href="#CMR17-4e"/>
       <use transform="translate(365.44416 0)scale(0.996264)" xlink:href="#CMR17-65"/>
       <use transform="translate(405.92982 0)scale(0.996264)" xlink:href="#CMR17-74"/>
       <use transform="translate(438.608134 0)scale(0.996264)" xlink:href="#CMR17-77"/>
       <use transform="translate(502.515561 0)scale(0.996264)" xlink:href="#CMR17-6f"/>
       <use transform="translate(548.206038 0)scale(0.996264)" xlink:href="#CMR17-72"/>
       <use transform="translate(583.486805 0)scale(0.996264)" xlink:href="#CMR17-6b"/>
      </g>
     </g>
    </g>
   </g>
   <g id="patch_7">
    <path d="M 111.197821 296.175503 
L 111.197821 3.00024 
" style="fill:none;stroke:#000000;stroke-linecap:square;stroke-linejoin:miter;stroke-width:0.8;"/>
   </g>
   <g id="patch_8">
    <path d="M 556.334996 296.175503 
L 556.334996 3.00024 
" style="fill:none;stroke:#000000;stroke-linecap:square;stroke-linejoin:miter;stroke-width:0.8;"/>
   </g>
   <g id="patch_9">
    <path d="M 111.197821 296.175503 
L 556.334996 296.175503 
" style="fill:none;stroke:#000000;stroke-linecap:square;stroke-linejoin:miter;stroke-width:0.8;"/>
   </g>
   <g id="patch_10">
    <path d="M 111.197821 3.00024 
L 556.334996 3.00024 
" style="fill:none;stroke:#000000;stroke-linecap:square;stroke-linejoin:miter;stroke-width:0.8;"/>
   </g>
  </g>
 </g>
 <defs>
  <clipPath id="pe6d0928f36">
   <rect height="293.175263" width="445.137175" x="111.197821" y="3.00024"/>
  </clipPath>
 </defs>
</svg>
